<svg width="54" height="54" viewBox="0 0 54 54" fill="none" xmlns="http://www.w3.org/2000/svg">
<defs>
    <style type="text/css"><![CDATA[
      .shadow-animation-1{
       	animation: gradient 2s ease infinite;
      }
       @keyframes gradient {
        0% {
            
           opacity:0;
        }
        20% {
            
           opacity:1;
        }
        80% {
            
           opacity:1;
        }
         100% {
        
            opacity:0;
        }
       }
     

    ]]></style>
  </defs>
<path class="shadow-animation-1" d="M30.4213 33.0399C38.135 33.0399 44.3882 26.7867 44.3882 19.0731C44.3882 11.3594 38.135 5.1062 30.4213 5.1062C22.7076 5.1062 16.4545 11.3594 16.4545 19.0731C16.4545 26.7867 22.7076 33.0399 30.4213 33.0399Z" fill="url(#paint0_linear_454_10406)"/>
<path class="shadow-animation-1" d="M30.4213 33.5055C22.463 33.5055 15.9889 27.0314 15.9889 19.073C15.9889 11.1147 22.463 4.64062 30.4213 4.64062C38.3796 4.64062 44.8537 11.1147 44.8537 19.073C44.8537 27.0314 38.3796 33.5055 30.4213 33.5055ZM30.4213 5.57175C22.977 5.57175 16.92 11.6287 16.92 19.073C16.92 26.5174 22.977 32.5743 30.4213 32.5743C37.8656 32.5743 43.9226 26.5174 43.9226 19.073C43.9226 11.6287 37.8656 5.57175 30.4213 5.57175Z" fill="#212A41"/>
<path  class="shadow-animation-1" d="M17.3856 53.5247C25.0992 53.5247 31.3524 47.2715 31.3524 39.5578C31.3524 31.8441 25.0992 25.5909 17.3856 25.5909C9.67188 25.5909 3.4187 31.8441 3.4187 39.5578C3.4187 47.2715 9.67188 53.5247 17.3856 53.5247Z" fill="url(#paint1_linear_454_10406)"/>
<path  class="shadow-animation-1" d="M17.3855 53.9902C9.42723 53.9902 2.95312 47.5161 2.95312 39.5578C2.95312 31.5995 9.42723 25.1254 17.3855 25.1254C25.3439 25.1254 31.818 31.5995 31.818 39.5578C31.818 47.5161 25.3439 53.9902 17.3855 53.9902ZM17.3855 26.0565C9.94121 26.0565 3.88425 32.1134 3.88425 39.5578C3.88425 47.0021 9.94121 53.0591 17.3855 53.0591C24.8299 53.0591 30.8868 47.0021 30.8868 39.5578C30.8868 32.1134 24.8299 26.0565 17.3855 26.0565Z" fill="#212A41"/>
<path d="M33.2147 33.0399C40.9283 33.0399 47.1815 26.7867 47.1815 19.0731C47.1815 11.3594 40.9283 5.1062 33.2147 5.1062C25.501 5.1062 19.2478 11.3594 19.2478 19.0731C19.2478 26.7867 25.501 33.0399 33.2147 33.0399Z" fill="url(#paint2_linear_454_10406)"/>
<path d="M33.2146 33.5055C25.2563 33.5055 18.7822 27.0314 18.7822 19.073C18.7822 11.1147 25.2563 4.64062 33.2146 4.64062C41.173 4.64062 47.6471 11.1147 47.6471 19.073C47.6471 27.0314 41.173 33.5055 33.2146 33.5055ZM33.2146 5.57175C25.7703 5.57175 19.7134 11.6287 19.7134 19.073C19.7134 26.5174 25.7703 32.5743 33.2146 32.5743C40.659 32.5743 46.7159 26.5174 46.7159 19.073C46.7159 11.6287 40.659 5.57175 33.2146 5.57175Z" fill="#212A41"/>
<path d="M33.2146 28.3843L26.6968 19.073L33.2146 9.76178L39.7325 19.073L33.2146 28.3843Z" fill="#E5E5E5"/>
<path  class="shadow-animation-1" d="M33.2146 28.8498C33.0629 28.8498 32.9204 28.7753 32.8338 28.6515L26.3159 19.3402C26.2033 19.1792 26.2033 18.9669 26.3159 18.8058L32.8338 9.49454C33.007 9.24686 33.4232 9.24686 33.5955 9.49454L40.1133 18.8058C40.226 18.9669 40.226 19.1792 40.1133 19.3402L33.5955 28.6515C33.5089 28.7753 33.3664 28.8498 33.2146 28.8498ZM27.2648 19.073L33.2146 27.5723L39.1645 19.073L33.2146 10.5737L27.2648 19.073Z" fill="#212A41"/>
<path d="M33.2146 22.7976C33.1439 22.7976 33.0722 22.7808 33.0061 22.7482L26.4882 19.4893C26.3308 19.4102 26.2312 19.2491 26.2312 19.0731C26.2312 18.8971 26.3308 18.736 26.4882 18.6569L33.0061 15.3979C33.1373 15.3328 33.2919 15.3328 33.4223 15.3979L39.9401 18.6569C40.0984 18.736 40.1981 18.8971 40.1981 19.0731C40.1981 19.2491 40.0984 19.4102 39.9411 19.4893L33.4232 22.7482C33.3571 22.7808 33.2854 22.7976 33.2146 22.7976ZM27.7378 19.0731L33.2146 21.8115L38.6915 19.0731L33.2146 16.3347L27.7378 19.0731Z" fill="#212A41"/>
<path d="M33.2146 28.8499C32.9576 28.8499 32.749 28.6413 32.749 28.3843V9.76183C32.749 9.50484 32.9576 9.29626 33.2146 9.29626C33.4716 9.29626 33.6801 9.50484 33.6801 9.76183V28.3843C33.6801 28.6413 33.4716 28.8499 33.2146 28.8499Z" fill="#212A41"/>
<path d="M20.1789 53.5247C27.8926 53.5247 34.1457 47.2715 34.1457 39.5578C34.1457 31.8441 27.8926 25.5909 20.1789 25.5909C12.4652 25.5909 6.21204 31.8441 6.21204 39.5578C6.21204 47.2715 12.4652 53.5247 20.1789 53.5247Z" fill="url(#paint3_linear_454_10406)"/>
<path d="M20.1789 53.9902C12.2206 53.9902 5.74646 47.5161 5.74646 39.5578C5.74646 31.5995 12.2206 25.1254 20.1789 25.1254C28.1372 25.1254 34.6113 31.5995 34.6113 39.5578C34.6113 47.5161 28.1372 53.9902 20.1789 53.9902ZM20.1789 26.0565C12.7345 26.0565 6.67758 32.1134 6.67758 39.5578C6.67758 47.0021 12.7345 53.0591 20.1789 53.0591C27.6232 53.0591 33.6802 47.0021 33.6802 39.5578C33.6802 32.1134 27.6232 26.0565 20.1789 26.0565Z" fill="#212A41"/>
<path d="M26.2358 38.1322C26.6716 37.4711 26.9295 36.6825 26.9295 35.8333C26.9295 33.5232 25.0496 31.6432 22.7395 31.6432V29.3154H20.8772V31.6432H19.015V29.3154H17.1527V31.6432H13.8938V34.4366H15.2905V42.8167H13.8938V45.6101H17.1527V47.9379H19.015V45.6101H20.8772V47.9379H22.7395V45.6101H23.6706C25.9807 45.6101 27.8607 43.7302 27.8607 41.42C27.8607 40.0801 27.2172 38.8995 26.2358 38.1322ZM18.0839 34.4366H22.7395C23.5095 34.4366 24.1362 35.0633 24.1362 35.8333C24.1362 36.6033 23.5095 37.23 22.7395 37.23H18.0839V34.4366ZM23.6706 42.8167H18.0839V40.0234H22.7395H23.6706C24.4406 40.0234 25.0673 40.65 25.0673 41.42C25.0673 42.1901 24.4406 42.8167 23.6706 42.8167Z" fill="#E5E5E5"/>
<path  class="shadow-animation-1" d="M22.7395 48.4035H20.8772C20.6202 48.4035 20.4116 48.1949 20.4116 47.9379V46.0756H19.4805V47.9379C19.4805 48.1949 19.272 48.4035 19.015 48.4035H17.1527C16.8957 48.4035 16.6872 48.1949 16.6872 47.9379V46.0756H13.8938C13.6368 46.0756 13.4282 45.8671 13.4282 45.6101V42.8167C13.4282 42.5597 13.6368 42.3511 13.8938 42.3511H14.8249V34.9022H13.8938C13.6368 34.9022 13.4282 34.6936 13.4282 34.4366V31.6432C13.4282 31.3862 13.6368 31.1777 13.8938 31.1777H16.6872V29.3154C16.6872 29.0584 16.8957 28.8499 17.1527 28.8499H19.015C19.272 28.8499 19.4805 29.0584 19.4805 29.3154V31.1777H20.4116V29.3154C20.4116 29.0584 20.6202 28.8499 20.8772 28.8499H22.7395C22.9964 28.8499 23.205 29.0584 23.205 29.3154V31.2C25.5542 31.4347 27.3951 33.4235 27.3951 35.8333C27.3951 36.6033 27.2033 37.3557 26.8373 38.0326C27.788 38.9162 28.3262 40.1295 28.3262 41.42C28.3262 43.9871 26.2377 46.0756 23.6706 46.0756H23.205V47.9379C23.205 48.1949 22.9964 48.4035 22.7395 48.4035ZM21.3428 47.4723H22.2739V45.6101C22.2739 45.3531 22.4825 45.1445 22.7395 45.1445H23.6706C25.7246 45.1445 27.3951 43.4741 27.3951 41.42C27.3951 40.2813 26.869 39.217 25.95 38.4982C25.7591 38.3492 25.7144 38.0782 25.8475 37.8752C26.2517 37.2644 26.464 36.5577 26.464 35.8333C26.464 33.7792 24.7935 32.1088 22.7395 32.1088C22.4825 32.1088 22.2739 31.9002 22.2739 31.6432V29.781H21.3428V31.6432C21.3428 31.9002 21.1342 32.1088 20.8772 32.1088H19.015C18.758 32.1088 18.5494 31.9002 18.5494 31.6432V29.781H17.6183V31.6432C17.6183 31.9002 17.4097 32.1088 17.1527 32.1088H14.3593V33.971H15.2905C15.5475 33.971 15.756 34.1796 15.756 34.4366V42.8167C15.756 43.0737 15.5475 43.2823 15.2905 43.2823H14.3593V45.1445H17.1527C17.4097 45.1445 17.6183 45.3531 17.6183 45.6101V47.4723H18.5494V45.6101C18.5494 45.3531 18.758 45.1445 19.015 45.1445H20.8772C21.1342 45.1445 21.3428 45.3531 21.3428 45.6101V47.4723ZM23.6706 43.2823H18.0838C17.8269 43.2823 17.6183 43.0737 17.6183 42.8167V40.0233C17.6183 39.7663 17.8269 39.5578 18.0838 39.5578H23.6706C24.6976 39.5578 25.5328 40.393 25.5328 41.42C25.5328 42.4471 24.6976 43.2823 23.6706 43.2823ZM18.5494 42.3511H23.6706C24.1846 42.3511 24.6017 41.934 24.6017 41.42C24.6017 40.906 24.1846 40.4889 23.6706 40.4889H18.5494V42.3511ZM22.7395 37.6955H18.0838C17.8269 37.6955 17.6183 37.487 17.6183 37.23V34.4366C17.6183 34.1796 17.8269 33.971 18.0838 33.971H22.7395C23.7665 33.971 24.6017 34.8063 24.6017 35.8333C24.6017 36.8603 23.7665 37.6955 22.7395 37.6955ZM18.5494 36.7644H22.7395C23.2534 36.7644 23.6706 36.3473 23.6706 35.8333C23.6706 35.3193 23.2534 34.9022 22.7395 34.9022H18.5494V36.7644Z" fill="#212A41"/>
<defs>
<linearGradient id="paint0_linear_454_10406" x1="5.3621" y1="16.7583" x2="67.9072" y2="22.5356" gradientUnits="userSpaceOnUse">
<stop stop-color="#E23146"/>
<stop offset="0.22" stop-color="#E8536E"/>
<stop offset="0.44" stop-color="#F08364"/>
<stop offset="0.72" stop-color="#FDA16A"/>
<stop offset="0.83" stop-color="#FDA568"/>
<stop offset="0.94" stop-color="#FEB060"/>
<stop offset="1" stop-color="#FFBA5A"/>
</linearGradient>
<linearGradient id="paint1_linear_454_10406" x1="-7.67367" y1="37.243" x2="54.8715" y2="43.0204" gradientUnits="userSpaceOnUse">
<stop stop-color="#E23146"/>
<stop offset="0.22" stop-color="#E8536E"/>
<stop offset="0.44" stop-color="#F08364"/>
<stop offset="0.72" stop-color="#FDA16A"/>
<stop offset="0.83" stop-color="#FDA568"/>
<stop offset="0.94" stop-color="#FEB060"/>
<stop offset="1" stop-color="#FFBA5A"/>
</linearGradient>
<linearGradient id="paint2_linear_454_10406" x1="8.15543" y1="16.7583" x2="70.7006" y2="22.5356" gradientUnits="userSpaceOnUse">
<stop stop-color="#E23146"/>
<stop offset="0.22" stop-color="#E8536E"/>
<stop offset="0.44" stop-color="#F08364"/>
<stop offset="0.72" stop-color="#FDA16A"/>
<stop offset="0.83" stop-color="#FDA568"/>
<stop offset="0.94" stop-color="#FEB060"/>
<stop offset="1" stop-color="#FFBA5A"/>
</linearGradient>
<linearGradient id="paint3_linear_454_10406" x1="-4.88033" y1="37.243" x2="57.6648" y2="43.0204" gradientUnits="userSpaceOnUse">
<stop stop-color="#E23146"/>
<stop offset="0.22" stop-color="#E8536E"/>
<stop offset="0.44" stop-color="#F08364"/>
<stop offset="0.72" stop-color="#FDA16A"/>
<stop offset="0.83" stop-color="#FDA568"/>
<stop offset="0.94" stop-color="#FEB060"/>
<stop offset="1" stop-color="#FFBA5A"/>
</linearGradient>
</defs>
</svg>
