<svg width="191" height="35" viewBox="0 0 191 35" fill="none" xmlns="http://www.w3.org/2000/svg">
<path d="M56.7839 35V11.6667H46.4596V35H36.1353V0H46.4596V7.77778H61.9461V11.6667H67.1082V35H56.7839ZM82.5947 15.5556V35H72.2704V7.77778H82.5947V11.6667H87.7569V7.77778H98.0812V15.5556H82.5947ZM134.216 27.2222V31.1111H129.054V27.2222H134.216ZM108.406 35V31.1111H103.243V11.6667H108.406V7.77778H129.054V11.6667H134.216V23.3333H113.568V31.1111H129.054V35H108.406ZM123.892 19.4444V11.6667H113.568V19.4444H123.892ZM154.865 3.88889V7.77778H160.027V11.6667H154.865V35H144.541V11.6667H139.379V7.77778H144.541V3.88889H149.703V0H165.189V3.88889H154.865ZM180.676 15.5556V19.4444H185.838V23.3333H191V31.1111H185.838V35H170.351V31.1111H180.676V27.2222H175.514V23.3333H170.351V19.4444H165.189V11.6667H170.351V7.77778H185.838V11.6667H175.514V15.5556H180.676ZM165.189 27.2222H170.351V31.1111H165.189V27.2222ZM191 15.5556H185.838V11.6667H191V15.5556Z" fill="#E5E5E5"/>
<path fill-rule="evenodd" clip-rule="evenodd" d="M5.16216 35.0001V31.1112H0V23.3334H5.16216V19.4445H20.6486V11.6667H5.16216V7.77783H25.8108V11.6667H30.973V35.0001H5.16216ZM10.3243 23.3334V31.1112H20.6486V23.3334H10.3243ZM0 15.5556V11.6667H5.16216V15.5556H0Z" fill="#E5E5E5"/>
</svg>
