<svg width="197" height="121" viewBox="0 0 197 121" fill="none" xmlns="http://www.w3.org/2000/svg">
<path d="M150.934 66.7117V66.6425C150.865 61.5623 154.888 57.3827 159.945 57.3134H160.221C165.232 57.2211 169.37 61.2159 169.462 66.273C169.462 66.3654 169.462 66.4808 169.462 66.5732V66.6425C169.462 71.7226 165.577 75.9715 160.175 75.9715C154.773 75.9715 150.934 71.7919 150.934 66.7117ZM164.818 66.7579V66.6886C164.841 64.1486 162.795 62.0472 160.244 62.0472C160.221 62.0472 160.175 62.0472 160.152 62.0472C157.347 62.0472 155.554 64.1486 155.554 66.6194V66.6886C155.531 69.2287 157.577 71.33 160.129 71.33C160.152 71.33 160.198 71.33 160.221 71.33C163.048 71.33 164.818 69.2287 164.818 66.7579ZM162.68 66.7117V66.6886C162.68 65.3031 161.577 64.1947 160.221 64.1717C160.198 64.1717 160.175 64.1717 160.152 64.1717C158.818 64.1255 157.738 65.1877 157.692 66.5039C157.692 66.5501 157.692 66.5963 157.692 66.6425V66.6656C157.692 68.051 158.773 69.1594 160.152 69.1825C160.175 69.1825 160.198 69.1825 160.221 69.1825C161.554 69.2287 162.634 68.1665 162.68 66.8503C162.68 66.8041 162.68 66.7579 162.68 66.7117ZM123.602 58.722H129.303V60.9619C130.337 59.5995 131.832 58.3526 134.13 58.3526C136.291 58.3526 137.923 59.3224 138.797 60.985C140.199 59.3455 141.854 58.3526 144.222 58.3526C147.647 58.3526 149.739 60.5232 149.739 64.3102V75.0016H144.061V66.1806C144.061 64.4026 143.187 63.4789 141.831 63.4789C140.475 63.4789 139.509 64.4257 139.509 66.1806V75.0478H133.785V66.1806C133.785 64.4026 132.912 63.4789 131.556 63.4789C130.199 63.4789 129.257 64.4257 129.257 66.1806V75.0478H123.556V58.722H123.602ZM105.856 69.3904V58.722H111.557V67.543C111.557 69.3211 112.499 70.2909 113.856 70.2909C115.212 70.2909 116.223 69.3211 116.223 67.543V58.722H121.924V75.0478H116.246V72.8079C115.166 74.4243 113.35 75.3942 111.396 75.4173C107.925 75.4173 105.879 73.1081 105.856 69.3904ZM86.294 71.9073L89.5122 68.028C91.4201 69.6444 93.8108 70.5449 96.2934 70.568C97.8565 70.568 98.6841 70.0369 98.6841 69.1363V69.044C98.6841 68.1665 97.9944 67.6816 95.167 67.035C90.7075 65.9959 87.2365 64.7259 87.2365 60.4077V60.3384C87.2365 56.436 90.3397 53.5957 95.3509 53.5957C98.9139 53.5957 101.718 54.5655 103.971 56.4129L101.075 60.5232C99.3737 59.2531 97.3278 58.5142 95.213 58.4449C93.8108 58.4449 93.1212 59.0453 93.1212 59.8073V59.8766C93.1212 60.8465 93.8568 61.239 96.7531 61.9087C101.58 62.9709 104.569 64.518 104.569 68.4898V68.5591C104.569 72.8772 101.167 75.4404 96.0865 75.4404C92.5005 75.4865 89.0294 74.2165 86.294 71.9073ZM69.7662 70.7528L77.9266 63.0402H69.7662V58.722H84.7998V62.994L76.5704 70.7528H84.7538V75.0478H69.7202V70.7528H69.7662ZM53.0545 70.7528L61.215 62.994H53.0545V58.722H68.0881V62.994L59.8587 70.7528H68.0422V75.0478H53.0086V70.7528H53.0545ZM35.3314 69.3904V58.722H41.0322V67.543C41.0322 69.3211 41.9747 70.2909 43.331 70.2909C44.6642 70.2909 45.6986 69.3211 45.6986 67.543V58.722H51.3995V75.0478H45.6986V72.8079C44.5953 74.4243 42.7793 75.4173 40.8254 75.4173C37.3773 75.4173 35.3084 73.1081 35.3314 69.3904ZM15.2866 53.9421H26.0446C28.6652 53.9421 30.5271 54.6117 31.7684 55.8587C32.6649 56.7592 33.1247 58.0062 33.1017 59.2762V59.3455C33.1017 61.7932 31.7454 63.2249 29.8835 64.0562C32.4121 64.8875 34.0441 66.3654 34.0441 69.2056V69.2749C34.0441 72.8772 31.1248 75.094 26.1136 75.094H15.2866V53.9421ZM24.5964 62.3474C26.3664 62.3474 27.3549 61.747 27.3549 60.5001V60.4308C27.3549 59.2993 26.4584 58.6297 24.7343 58.6297H20.9415V62.3474H24.5964ZM25.4469 70.3371C27.217 70.3371 28.2514 69.6444 28.2514 68.3974V68.3281C28.2514 67.1967 27.3549 66.4115 25.424 66.4115H20.9415V70.2909H25.4469V70.3371Z" fill="#E5E5E5"/>
<path d="M162.405 51.2174C168.404 51.2174 175.507 56.5284 175.507 64.3334C175.507 65.5111 174.565 66.4809 173.392 66.4809C173.392 66.4809 173.392 66.4809 173.369 66.4809H173.323C172.542 66.4578 171.875 65.8574 171.783 65.0723C171.117 59.7843 167.117 55.5817 161.6 54.9351C160.818 54.8427 160.221 54.1731 160.198 53.3649V53.3418C160.267 52.141 161.232 51.2174 162.405 51.2174ZM162.542 45.0288C161.37 45.0288 160.405 45.9756 160.405 47.1763V47.1994C160.428 47.9845 161.048 48.6311 161.83 48.6773C170.496 49.3008 177.392 56.2051 178.082 64.8876C178.128 65.6727 178.771 66.2731 179.553 66.2962H179.576C180.748 66.2962 181.691 65.3263 181.714 64.1486C181.691 52.8107 171.53 45.0288 162.542 45.0288Z" fill="#C4C4C4"/>
</svg>
