<svg width="58" height="59" viewBox="0 0 58 59" fill="none" xmlns="http://www.w3.org/2000/svg">
<g clip-path="url(#clip0_1746_5667)">
<path d="M29.0001 58.5002C44.696 58.5002 57.4201 45.7761 57.4201 30.0802C57.4201 14.3842 44.696 1.66016 29.0001 1.66016C13.3041 1.66016 0.580078 14.3842 0.580078 30.0802C0.580078 45.7761 13.3041 58.5002 29.0001 58.5002Z" fill="#C4C4C4"/>
<path d="M36.3658 34.8364C35.2058 36.1124 33.5818 36.7504 32.8278 36.7504C31.9578 36.7504 31.4938 36.2284 31.3778 35.4164C31.3198 35.1264 31.3778 34.7784 31.4358 34.4884C31.7258 32.6904 32.3638 31.5304 32.3638 31.2404C32.3638 31.1244 32.3058 31.0664 32.2478 31.0664C31.6678 31.0664 29.6958 33.0964 29.4058 34.4304L29.1738 35.5324C28.9998 36.2864 28.3038 36.7504 27.7818 36.7504C27.5498 36.7504 27.3758 36.6344 27.3178 36.3444C27.3178 36.2284 27.3178 36.1124 27.3178 35.9964L27.4338 35.4164C26.3898 36.2284 25.2298 36.7504 24.7078 36.7504C23.9538 36.7504 23.5478 36.3444 23.4318 35.7644C22.9678 36.4024 22.3298 36.7504 21.6338 36.7504C20.7638 36.7504 19.9518 36.1704 19.5458 35.3004C18.9658 35.9384 18.2698 36.5764 17.4578 37.0984C16.2398 37.8524 14.9058 38.4904 13.3398 38.4904C11.8898 38.4904 10.6138 37.7364 9.97584 37.0984C8.93184 36.1704 8.40984 34.7204 8.23584 33.4444C7.71384 29.3844 10.2078 23.9904 14.0938 21.6704C14.9638 21.1484 15.9498 20.8584 16.8778 20.8584C18.7338 20.8584 20.1258 22.1924 20.2998 23.7584C20.4738 25.2084 19.8938 26.4264 18.3278 27.1804C17.5158 27.5864 17.1098 27.5864 16.9938 27.3544C16.9358 27.2384 16.9358 27.0064 17.1098 26.8904C18.6178 25.6724 18.6178 24.6284 18.4438 23.1784C18.3278 22.2504 17.7478 21.6704 17.0518 21.6704C14.0358 21.6704 9.85984 28.2244 10.4398 32.9804C10.6718 34.8364 11.8318 36.9824 14.1518 36.9824C14.9058 36.9824 15.7758 36.7504 16.4718 36.4024C17.7478 35.7644 18.5018 35.2424 19.1978 34.3724C19.0238 32.1684 20.9378 29.3844 23.7218 29.3844C24.9398 29.3844 25.9258 29.8484 26.0418 30.8344C26.2158 32.0524 25.1718 32.2844 24.7658 32.2844C24.4178 32.2844 23.8958 32.1684 23.8378 31.8784C23.7798 31.5304 24.5918 31.7044 24.4758 30.9504C24.4178 30.4864 23.8958 30.3124 23.4318 30.3124C21.6918 30.3124 20.7058 32.7484 20.8798 34.2564C20.9378 34.9524 21.3438 35.6484 21.9238 35.6484C22.4458 35.6484 23.1998 34.8944 23.4318 33.8504C23.6058 33.0964 24.3018 32.6324 24.8238 32.6324C25.1138 32.6324 25.2878 32.7484 25.2878 33.0384C25.2878 33.1544 25.2878 33.2704 25.2878 33.3864C25.2298 33.6764 24.9978 34.7784 24.9978 34.9524C24.9978 35.1264 25.1138 35.4164 25.4618 35.4164C25.7518 35.4164 26.6798 34.8944 27.6078 34.0824C27.8978 32.6324 28.2458 30.8344 28.2458 30.7184C28.3618 30.1384 28.5938 29.5004 29.7538 29.5004C29.9858 29.5004 30.1598 29.6164 30.2178 29.9064C30.2178 30.0224 30.2178 30.1384 30.2178 30.2544L29.9278 31.8204C30.9718 30.4284 32.5958 29.3844 33.5818 29.3844C33.9878 29.3844 34.3358 29.6164 34.3938 30.0224C34.4518 30.2544 34.3358 30.6604 34.2198 31.1244C33.8718 32.0524 33.4658 33.5024 33.2338 34.7204C33.1758 35.0104 33.2918 35.3584 33.7558 35.3584C34.1618 35.3584 35.3798 34.8944 36.3658 33.5604C36.3658 33.3864 36.3658 33.2124 36.3658 32.9804C36.3658 31.9364 36.4238 31.1244 36.6558 30.4864C36.8298 29.8484 37.6418 29.2684 38.1638 29.2684C38.4538 29.2684 38.6278 29.4424 38.6278 29.7324C38.6278 29.8484 38.6278 29.9644 38.5698 30.0804C38.2218 31.1824 37.9898 32.1684 37.9898 33.1544C37.9898 33.7344 38.1058 34.6044 38.2218 35.0684C38.2218 35.1844 38.2798 35.2424 38.3958 35.2424C38.5698 35.2424 39.7298 34.1404 40.5418 32.7484C39.7878 32.2844 39.3818 31.4144 39.3818 30.3704C39.3818 28.6304 40.4258 27.7024 41.4698 27.7024C42.2818 27.7024 42.9778 28.2824 42.9778 29.4424C42.9778 30.1964 42.6878 31.0084 42.2818 31.8204C42.2818 31.8204 42.4558 31.8204 42.5138 31.8204C43.1518 31.8204 43.6158 31.5304 43.9058 31.1824C44.0218 31.0664 44.1378 30.9504 44.2538 30.8924C45.0658 29.9064 46.2838 29.2104 47.6758 29.2104C48.8938 29.2104 49.8798 29.6744 49.9958 30.6604C50.1698 31.8784 49.0678 32.1684 48.7198 32.1684C48.3718 32.1684 47.7918 32.0524 47.7918 31.7624C47.7338 31.4724 48.5458 31.5884 48.4878 30.8344C48.4298 30.3704 47.9078 30.1384 47.4438 30.1384C45.8198 30.1384 44.7178 32.2844 44.8918 34.0824C44.9498 34.7784 45.2978 35.4744 45.9358 35.4744C46.4578 35.4744 47.2118 34.7204 47.5018 33.6764C47.6758 32.9804 48.3718 32.4584 48.8938 32.4584C49.1258 32.4584 49.3578 32.5744 49.3578 32.8644C49.3578 33.0384 49.2998 33.3284 49.0678 34.4884C48.9518 34.9524 48.9518 35.4164 48.9518 35.7064C49.0678 36.4024 49.3578 36.8664 49.6478 37.1564C49.7638 37.2724 49.8218 37.3884 49.8218 37.4464C49.8218 37.6204 49.7058 37.7944 49.4738 37.7944C49.4158 37.7944 49.2998 37.7944 49.2418 37.7364C47.9658 37.2144 47.4438 36.3444 47.3278 35.5904C46.8638 36.2284 46.2258 36.5184 45.5298 36.5184C44.4278 36.5184 43.3258 35.5324 43.1518 34.2564C43.0938 33.7344 43.1518 33.1544 43.3258 32.6324C42.8618 32.9224 42.3978 33.0964 41.9338 33.0964C41.7598 33.0964 41.6438 33.0964 41.5278 33.0964C40.4258 34.6624 39.2658 35.7644 38.3958 36.2864C38.0478 36.4604 37.6998 36.5764 37.4678 36.5764C37.2938 36.5764 37.0618 36.5184 36.9458 36.3444C36.5978 36.1124 36.4238 35.5324 36.3658 34.8364ZM40.3098 29.6164C40.3098 30.3124 40.6578 31.0084 41.0638 31.4724C41.2378 31.0084 41.3538 30.5444 41.3538 30.0804C41.3538 29.2104 41.0058 28.8044 40.7738 28.8044C40.4258 28.8044 40.3098 29.2684 40.3098 29.6164Z" fill="white"/>
</g>
<defs>
<clipPath id="clip0_1746_5667">
<rect width="58" height="58" fill="white" transform="translate(0 0.5)"/>
</clipPath>
</defs>
</svg>
