<svg width="52" height="35" viewBox="0 0 52 35" fill="none" xmlns="http://www.w3.org/2000/svg">
<defs>
    <style type="text/css"><![CDATA[
      .shadow-animation-1{
       	animation: gradient 2s ease infinite;
      }
       @keyframes gradient {
        0% {
            
           opacity:0;
        }
        20% {
            
           opacity:1;
        }
        80% {
            
           opacity:1;
        }
         100% {
        
            opacity:0;
        }
       }
     

    ]]></style>
  </defs>
<path  class="shadow-animation-1" d="M45.2504 15.9466H50.2125C50.7951 15.9466 51.2672 15.4367 51.2672 14.8075C51.2672 14.1783 50.7951 13.6685 50.2125 13.6685H45.2504C44.6678 13.6685 44.1957 14.1783 44.1957 14.8075C44.1957 15.4367 44.6678 15.9466 45.2504 15.9466Z" fill="url(#paint0_linear_454_10275)"/>
<path class="shadow-animation-1" d="M49.9079 22.4858L44.9458 19.2964C44.4454 18.9752 43.7978 19.152 43.5 19.6928C43.2021 20.2337 43.3667 20.9326 43.867 21.2543L48.8291 24.4436C48.9979 24.5521 49.1839 24.604 49.3674 24.604C49.7273 24.604 50.0774 24.4054 50.2749 24.0472C50.5727 23.5064 50.4086 22.8075 49.9079 22.4858Z" fill="url(#paint1_linear_454_10275)"/>
<path class="shadow-animation-1" d="M44.4074 10.4791C44.5909 10.4791 44.7766 10.4276 44.9457 10.3187L49.9078 7.12932C50.4086 6.80765 50.5727 6.10872 50.2749 5.56789C49.977 5.02661 49.3299 4.84983 48.8291 5.1715L43.867 8.36087C43.3662 8.68255 43.2021 9.38147 43.5 9.9223C43.6974 10.2804 44.048 10.4791 44.4074 10.4791Z" fill="url(#paint2_linear_454_10275)"/>
<path  d="M37.5654 9.66812V3.17592C37.5654 2.60958 37.3267 2.08743 36.9107 1.74298C36.4947 1.39853 35.9661 1.2869 35.4599 1.43316L5.7548 10.0827C4.86338 10.3424 4.23816 11.2027 4.20146 12.1927H3.04468C1.70944 12.1927 0.623535 13.3655 0.623535 14.8076C0.623535 16.2492 1.70944 17.422 3.04468 17.422H4.20146C4.22382 18.0293 4.46471 18.5888 4.85747 18.9893C5.10469 19.2417 5.41055 19.4317 5.7548 19.532L7.18285 19.9479L9.59386 32.0471C9.72169 32.6868 10.2473 33.1264 10.8308 33.1264C10.9186 33.1264 11.008 33.1169 11.097 33.0959L13.8421 32.4589C14.1729 32.3819 14.456 32.171 14.6395 31.8644C14.823 31.5573 14.885 31.1919 14.8137 30.8351L12.9807 21.6365L15.3229 22.3186H15.3242L35.4599 28.182C35.6054 28.2244 35.7526 28.2453 35.899 28.2453C36.261 28.2453 36.615 28.1173 36.9111 27.8722C37.3271 27.5277 37.5659 27.006 37.5659 26.4397V19.947C40.0043 19.7151 41.9243 17.5003 41.9243 14.808C41.9238 12.1148 40.0039 9.90004 37.5654 9.66812ZM1.46729 14.8076C1.46729 13.8681 2.17477 13.104 3.04468 13.104H4.19471V16.5112H3.04468C2.17477 16.5112 1.46729 15.7471 1.46729 14.8076ZM13.989 31.0265C14.0126 31.1458 13.9919 31.2675 13.9307 31.3695C13.8696 31.4721 13.7751 31.5422 13.665 31.5682L10.9198 32.2052C10.6928 32.2562 10.468 32.1013 10.4186 31.8552L8.09874 20.2145L12.0639 21.369L13.989 31.0265ZM36.7217 26.4397C36.7217 26.7194 36.6036 26.9782 36.3977 27.1486C36.1914 27.3186 35.929 27.3742 35.6792 27.3022L15.8545 21.5294V18.3815C15.8545 18.1295 15.6655 17.9259 15.4326 17.9259C15.1997 17.9259 15.0107 18.1295 15.0107 18.3815V21.2838L5.9746 18.6521C5.90583 18.6321 5.8396 18.6061 5.77589 18.5747C5.33293 18.3551 5.03804 17.8721 5.03804 17.3322V16.9663V12.6479V12.2825C5.03804 11.6656 5.42321 11.1229 5.97418 10.963L15.0103 8.33223V11.9394C15.0103 12.1914 15.1993 12.395 15.4322 12.395C15.6651 12.395 15.8541 12.1914 15.8541 11.9394V8.08619L35.6792 2.31388C35.9307 2.24007 36.1914 2.29656 36.3973 2.46697C36.6031 2.63737 36.7217 2.89571 36.7217 3.17638V10.101V19.5146V26.4397ZM37.5654 19.0349V10.5803C39.5381 10.8086 41.0801 12.6174 41.0801 14.8076C41.0801 16.9978 39.5381 18.8066 37.5654 19.0349Z" fill="url(#paint3_linear_454_10275)" stroke="url(#paint4_linear_454_10275)" stroke-width="2"/>
<path  class="shadow-animation-1" d="M50.2125 13.2129H45.2504C44.4361 13.2129 43.7738 13.9282 43.7738 14.8076C43.7738 15.6869 44.4361 16.4023 45.2504 16.4023H50.2125C51.0267 16.4023 51.689 15.6869 51.689 14.8076C51.689 13.9282 51.0267 13.2129 50.2125 13.2129ZM50.2125 15.491H45.2504C44.9015 15.491 44.6176 15.1844 44.6176 14.8076C44.6176 14.4308 44.9015 14.1241 45.2504 14.1241H50.2125C50.5614 14.1241 50.8453 14.4308 50.8453 14.8076C50.8453 15.1844 50.5614 15.491 50.2125 15.491Z" fill="url(#paint5_linear_454_10275)"/>
<path  class="shadow-animation-1" d="M50.1238 22.0944L45.1617 18.905C44.4618 18.4553 43.5539 18.7046 43.138 19.46C42.7216 20.2159 42.9524 21.1964 43.6518 21.6461L48.6139 24.8355C48.8421 24.9822 49.1029 25.0596 49.3678 25.0596C49.8863 25.0596 50.3727 24.7612 50.6376 24.2805C51.054 23.5242 50.8233 22.5441 50.1238 22.0944ZM49.9124 23.8139C49.7395 24.1274 49.3383 24.2404 49.0451 24.0518L44.083 20.8624C43.7834 20.6697 43.6843 20.2491 43.8628 19.9252C43.9809 19.7106 44.1914 19.5917 44.4078 19.5917C44.5179 19.5917 44.6289 19.6227 44.7306 19.6878L49.6926 22.8772C49.9922 23.0699 50.0909 23.4905 49.9124 23.8139Z" fill="url(#paint6_linear_454_10275)"/>
<path  class="shadow-animation-1" d="M44.4074 10.9348C44.6724 10.9348 44.9331 10.8573 45.1613 10.7106L50.1234 7.52122C50.8233 7.07152 51.0536 6.09101 50.6373 5.33558C50.4356 4.96881 50.1141 4.70955 49.7319 4.60476C49.3493 4.49951 48.9527 4.56239 48.6135 4.78018L43.6514 7.96955C42.9515 8.41925 42.7212 9.39976 43.1376 10.1556C43.4025 10.6363 43.8889 10.9348 44.4074 10.9348ZM44.083 8.75277L49.0451 5.5634C49.1442 5.49961 49.2556 5.4668 49.3678 5.4668C49.4201 5.4668 49.4725 5.47409 49.5243 5.48822C49.688 5.53332 49.826 5.6445 49.9125 5.80169C49.999 5.95842 50.0234 6.14204 49.9821 6.31928C49.9403 6.49652 49.8374 6.64505 49.6923 6.73845L44.7302 9.92783C44.437 10.1155 44.0353 10.0035 43.8628 9.68999C43.6843 9.36604 43.783 8.9455 44.083 8.75277Z" fill="url(#paint7_linear_454_10275)"/>
<defs>
<linearGradient id="paint0_linear_454_10275" x1="41.3876" y1="14.6187" x2="56.1431" y2="18.8495" gradientUnits="userSpaceOnUse">
<stop stop-color="#E23146"/>
<stop offset="0.22" stop-color="#E8536E"/>
<stop offset="0.44" stop-color="#F08364"/>
<stop offset="0.72" stop-color="#FDA16A"/>
<stop offset="0.83" stop-color="#FDA568"/>
<stop offset="0.94" stop-color="#FEB060"/>
<stop offset="1" stop-color="#FFBA5A"/>
</linearGradient>
<linearGradient id="paint1_linear_454_10275" x1="40.5434" y1="21.417" x2="56.288" y2="23.298" gradientUnits="userSpaceOnUse">
<stop stop-color="#E23146"/>
<stop offset="0.22" stop-color="#E8536E"/>
<stop offset="0.44" stop-color="#F08364"/>
<stop offset="0.72" stop-color="#FDA16A"/>
<stop offset="0.83" stop-color="#FDA568"/>
<stop offset="0.94" stop-color="#FEB060"/>
<stop offset="1" stop-color="#FFBA5A"/>
</linearGradient>
<linearGradient id="paint2_linear_454_10275" x1="40.5432" y1="7.2919" x2="56.2881" y2="9.17286" gradientUnits="userSpaceOnUse">
<stop stop-color="#E23146"/>
<stop offset="0.22" stop-color="#E8536E"/>
<stop offset="0.44" stop-color="#F08364"/>
<stop offset="0.72" stop-color="#FDA16A"/>
<stop offset="0.83" stop-color="#FDA568"/>
<stop offset="0.94" stop-color="#FEB060"/>
<stop offset="1" stop-color="#FFBA5A"/>
</linearGradient>
<linearGradient id="paint3_linear_454_10275" x1="-15.7768" y1="14.6169" x2="76.16" y2="25.6616" gradientUnits="userSpaceOnUse">
<stop stop-color="#E23146"/>
<stop offset="0.22" stop-color="#E8536E"/>
<stop offset="0.44" stop-color="#F08364"/>
<stop offset="0.72" stop-color="#FDA16A"/>
<stop offset="0.83" stop-color="#FDA568"/>
<stop offset="0.94" stop-color="#FEB060"/>
<stop offset="1" stop-color="#FFBA5A"/>
</linearGradient>
<linearGradient id="paint4_linear_454_10275" x1="-15.7768" y1="14.6169" x2="76.16" y2="25.6616" gradientUnits="userSpaceOnUse">
<stop stop-color="#E23146"/>
<stop offset="0.22" stop-color="#E8536E"/>
<stop offset="0.44" stop-color="#F08364"/>
<stop offset="0.72" stop-color="#FDA16A"/>
<stop offset="0.83" stop-color="#FDA568"/>
<stop offset="0.94" stop-color="#FEB060"/>
<stop offset="1" stop-color="#FFBA5A"/>
</linearGradient>
<linearGradient id="paint5_linear_454_10275" x1="40.6307" y1="14.5433" x2="57.6121" y2="18.4361" gradientUnits="userSpaceOnUse">
<stop stop-color="#E23146"/>
<stop offset="0.22" stop-color="#E8536E"/>
<stop offset="0.44" stop-color="#F08364"/>
<stop offset="0.72" stop-color="#FDA16A"/>
<stop offset="0.83" stop-color="#FDA568"/>
<stop offset="0.94" stop-color="#FEB060"/>
<stop offset="1" stop-color="#FFBA5A"/>
</linearGradient>
<linearGradient id="paint6_linear_454_10275" x1="39.7879" y1="21.3418" x2="57.428" y2="23.3636" gradientUnits="userSpaceOnUse">
<stop stop-color="#E23146"/>
<stop offset="0.22" stop-color="#E8536E"/>
<stop offset="0.44" stop-color="#F08364"/>
<stop offset="0.72" stop-color="#FDA16A"/>
<stop offset="0.83" stop-color="#FDA568"/>
<stop offset="0.94" stop-color="#FEB060"/>
<stop offset="1" stop-color="#FFBA5A"/>
</linearGradient>
<linearGradient id="paint7_linear_454_10275" x1="39.7874" y1="7.21616" x2="57.4279" y2="9.23761" gradientUnits="userSpaceOnUse">
<stop stop-color="#E23146"/>
<stop offset="0.22" stop-color="#E8536E"/>
<stop offset="0.44" stop-color="#F08364"/>
<stop offset="0.72" stop-color="#FDA16A"/>
<stop offset="0.83" stop-color="#FDA568"/>
<stop offset="0.94" stop-color="#FEB060"/>
<stop offset="1" stop-color="#FFBA5A"/>
</linearGradient>
</defs>
</svg>
