<svg width="54" height="54" viewBox="0 0 54 54" fill="none" xmlns="http://www.w3.org/2000/svg">
<path d="M23.8736 9.81239C21.5332 9.81239 19.3677 10.5468 17.5865 11.7968C17.4709 10.0061 17.0616 8.45302 16.3085 7.07801C18.6871 5.76158 21.3681 5.08863 24.0865 5.12567C26.8048 5.1627 29.4665 5.90845 31.8084 7.2892C34.1503 8.66995 36.0915 10.6379 37.44 12.9987C38.7885 15.3594 39.4978 18.0311 39.4977 20.7499H46.5316C47.9814 20.7499 49.3718 21.3257 50.3972 22.3506C51.4227 23.3755 51.9992 24.7657 52 26.2156V43.4031C52.0004 44.1218 51.8592 44.8335 51.5843 45.4976C51.3095 46.1617 50.9065 46.765 50.3983 47.2732C49.8902 47.7814 49.2868 48.1845 48.6228 48.4593C47.9588 48.7341 47.2471 48.8754 46.5285 48.875H29.342C27.8917 48.875 26.5008 48.2988 25.4753 47.2732C24.4498 46.2476 23.8736 44.8566 23.8736 43.4062V36.375C21.7 36.3777 19.5498 35.9253 17.5615 35.0468C17.6021 33.9843 17.624 32.8687 17.624 31.6875V31.4937C17.624 30.9718 17.624 30.3718 17.6146 29.7218C19.4498 31.0039 21.635 31.6902 23.8736 31.6875V26.2187C23.8736 23.1999 26.3235 20.7499 29.342 20.7499H34.8105C34.8105 17.8491 33.6582 15.0671 31.6071 13.0159C29.5561 10.9647 26.7743 9.81239 23.8736 9.81239ZM38.7821 25.4374C38.0247 27.8371 36.7004 30.0189 34.9212 31.7982C33.142 33.5775 30.9603 34.9019 28.5608 35.6593V43.4062C28.5608 43.8375 28.9108 44.1875 29.342 44.1875H46.5285C46.7357 44.1875 46.9344 44.1052 47.0809 43.9587C47.2274 43.8121 47.3097 43.6134 47.3097 43.4062V26.2187C47.3097 26.0115 47.2274 25.8128 47.0809 25.6663C46.9344 25.5197 46.7357 25.4374 46.5285 25.4374H38.7821ZM33.7574 25.4374H29.342C29.1349 25.4374 28.9362 25.5197 28.7896 25.6663C28.6431 25.8128 28.5608 26.0115 28.5608 26.2187V30.6343C30.8383 29.5501 32.6733 27.7151 33.7574 25.4374ZM10.0651 2.3905C10.3245 2.61738 10.5016 2.92365 10.5688 3.26163C10.6361 3.59962 10.5897 3.95036 10.437 4.25926C10.4105 4.35068 10.3968 4.44533 10.3963 4.54051C10.3963 4.73738 10.4463 5.11238 10.9182 5.58113C11.1463 5.80926 11.3213 5.97176 11.5119 6.14989C11.6681 6.29364 11.8338 6.44364 12.0431 6.64989C12.4493 7.03739 12.8774 7.49364 13.2618 8.06552C14.0586 9.26239 14.4992 10.7593 14.4992 12.9374C14.4992 15.603 13.5118 17.8749 11.9713 19.2687L12.1712 19.4999C13.0462 20.5749 13.5555 21.9687 13.8743 23.3437C14.4992 26.0624 14.4992 29.3312 14.4992 31.6093V31.6875C14.4992 40.3968 13.3149 45.3375 12.0119 48.1625C11.3557 49.5844 10.6588 50.4906 10.0557 51.0594C9.81056 51.2946 9.54019 51.5021 9.24955 51.6781C9.11647 51.7583 8.97754 51.8282 8.83395 51.8875C8.83395 51.8875 8.48084 52 8.24961 52C8.01837 52 7.66527 51.8875 7.66527 51.8875C7.52012 51.8317 7.3809 51.7616 7.24967 51.6781C6.95903 51.5021 6.68866 51.2946 6.44347 51.0594C5.84038 50.4875 5.14355 49.5844 4.48734 48.1625C3.1843 45.3375 2 40.3968 2 31.6875V31.6093C2 29.3281 2 26.0624 2.62496 23.3437C2.94369 21.9687 3.45303 20.5749 4.32798 19.4999C4.39048 19.4218 4.45922 19.3437 4.52797 19.2687C2.98744 17.8749 2 15.603 2 12.9374C2 11.9186 2.27186 10.703 2.64683 9.58114C3.02181 8.45614 3.54678 7.29364 4.15299 6.35614C4.87482 5.13738 5.89038 4.1155 6.67783 3.428C7.10955 3.0483 7.56009 2.69056 8.02775 2.35613L8.16524 2.26238C8.45177 2.07136 8.79338 1.98037 9.13695 2.00354C9.48053 2.02671 9.80683 2.16275 10.0651 2.3905Z" fill="url(#paint0_linear_368_6004)"/>
<defs>
<linearGradient id="paint0_linear_368_6004" x1="-17.8548" y1="22.8566" x2="94.098" y2="33.1978" gradientUnits="userSpaceOnUse">
<stop stop-color="#E23146"/>
<stop offset="0.22" stop-color="#E8536E"/>
<stop offset="0.44" stop-color="#F08364"/>
<stop offset="0.72" stop-color="#FDA16A"/>
<stop offset="0.83" stop-color="#FDA568"/>
<stop offset="0.94" stop-color="#FEB060"/>
<stop offset="1" stop-color="#FFBA5A"/>
</linearGradient>
</defs>
</svg>
