<svg width="177" height="47" viewBox="0 0 177 47" fill="none" xmlns="http://www.w3.org/2000/svg">
<path fill-rule="evenodd" clip-rule="evenodd" d="M53.5598 33.4907C52.9127 33.2463 52.4891 32.7288 52.4891 32.0388C52.4891 31.2036 53.1855 30.515 54.0328 30.515C54.2823 30.515 54.4825 30.5639 54.6566 30.6372C55.8121 31.1651 57.0708 31.4341 58.3431 31.425C60.9358 31.425 62.1559 30.1959 62.1559 27.8327V27.193C61.0344 28.5227 59.8143 29.3349 57.7962 29.3349C54.6813 29.3349 51.8652 27.0952 51.8652 23.1824V23.1349C51.8652 19.1976 54.7306 16.9839 57.7962 16.9839C59.8636 16.9839 61.0837 17.8464 62.1051 18.9532V18.9274C62.1051 17.9182 62.9524 17.083 63.9999 17.083C65.0445 17.083 65.8918 17.9182 65.8918 18.9518V27.4402C65.8918 29.802 65.3201 31.5227 64.1987 32.6296C62.9524 33.8615 61.0344 34.402 58.4433 34.402C56.771 34.4166 55.1121 34.107 53.5598 33.4907ZM62.1559 23.1838V23.1349C62.1559 21.338 60.7341 20.0831 58.8916 20.0831C57.049 20.0831 55.6533 21.338 55.6533 23.1349V23.1838C55.6533 25.0037 57.049 26.2342 58.8916 26.2342C60.7341 26.2342 62.1559 24.9792 62.1559 23.1838ZM68.0361 18.9518C68.0361 17.9182 68.8833 17.083 69.9294 17.083C70.9769 17.083 71.8227 17.9182 71.8227 18.9518V19.5412C72.3711 18.2632 73.2677 17.083 74.3907 17.083C75.5615 17.083 76.2332 17.8449 76.2332 18.9029C76.2332 19.8862 75.5861 20.477 74.8129 20.6495C72.8949 21.0937 71.8242 22.5441 71.8242 25.2006V28.6937C71.8242 29.7273 70.9769 30.5639 69.9294 30.5639C69.6812 30.5645 69.4353 30.5166 69.2058 30.423C68.9764 30.3293 68.7677 30.1918 68.5919 30.0183C68.4161 29.8447 68.2765 29.6386 68.1811 29.4115C68.0857 29.1845 68.0364 28.9411 68.0361 28.6952V18.9518ZM75.7849 26.628V26.5792C75.7849 23.6999 78.0017 22.3716 81.1674 22.3716C82.5123 22.3716 83.4844 22.593 84.4318 22.9121V22.6907C84.4318 21.1425 83.4597 20.28 81.5664 20.28C80.6801 20.2707 79.7975 20.3952 78.9491 20.6495C78.774 20.7138 78.5889 20.7473 78.4022 20.7487C78.1974 20.7525 77.9939 20.7158 77.8036 20.6408C77.6133 20.5658 77.44 20.454 77.2939 20.3118C77.1477 20.1697 77.0316 20.0001 76.9524 19.813C76.8731 19.6259 76.8324 19.425 76.8324 19.222C76.8324 18.5579 77.2531 17.993 77.8538 17.7702C79.0492 17.3274 80.3448 17.083 82.1134 17.083C84.1808 17.083 85.6766 17.6235 86.6225 18.5579C87.6192 19.5412 88.069 20.9945 88.069 22.7655V28.767C88.069 29.7762 87.2464 30.5639 86.225 30.5639C85.1282 30.5639 84.4057 29.802 84.4057 29.0143V28.9884C83.4844 29.9975 82.2149 30.6617 80.3695 30.6617C77.8538 30.6617 75.7849 29.2357 75.7849 26.628ZM84.4811 25.7655V25.1029C83.7196 24.7713 82.8958 24.6033 82.064 24.6098C80.4435 24.6098 79.4482 25.2495 79.4482 26.4311V26.48C79.4482 27.4891 80.2955 28.0799 81.5156 28.0799C83.2856 28.0799 84.4811 27.1197 84.4811 25.7655ZM90.0871 18.9518C90.0871 17.9182 90.9344 17.083 91.9818 17.083C93.0279 17.083 93.8752 17.9182 93.8752 18.9518V19.0999C94.7457 17.993 95.8933 16.9839 97.8112 16.9839C99.5551 16.9839 100.875 17.7457 101.573 19.0754C102.744 17.7227 104.141 16.9839 105.958 16.9839C108.774 16.9839 110.47 18.6571 110.47 21.8311V28.6937C110.47 29.7273 109.621 30.5639 108.575 30.5639C108.327 30.5645 108.081 30.5166 107.851 30.423C107.622 30.3294 107.413 30.1919 107.237 30.0184C107.061 29.8448 106.921 29.6387 106.826 29.4116C106.73 29.1846 106.681 28.9411 106.68 28.6952V23.0602C106.68 21.2892 105.882 20.3792 104.463 20.3792C103.043 20.3792 102.171 21.2892 102.171 23.0602V28.6952C102.171 29.7273 101.325 30.5639 100.278 30.5639C99.7765 30.5647 99.2956 30.3683 98.9406 30.0179C98.5855 29.6674 98.3855 29.1917 98.3843 28.6952V23.0602C98.3843 21.2892 97.5864 20.3792 96.1675 20.3792C94.7457 20.3792 93.8752 21.2892 93.8752 23.0602V28.6952C93.8752 29.7273 93.0279 30.5639 91.9818 30.5639C91.7335 30.5647 91.4875 30.5169 91.2579 30.4234C91.0282 30.3298 90.8194 30.1924 90.6434 30.0188C90.4674 29.8452 90.3277 29.639 90.2323 29.4119C90.1368 29.1847 90.0875 28.9412 90.0871 28.6952V18.9518ZM112.512 18.9518C112.512 17.9182 113.36 17.083 114.406 17.083C115.453 17.083 116.3 17.9182 116.3 18.9518V19.0999C117.171 17.993 118.317 16.9839 120.237 16.9839C121.98 16.9839 123.301 17.7457 123.999 19.0754C125.169 17.7227 126.565 16.9839 128.383 16.9839C131.199 16.9839 132.894 18.6571 132.894 21.8311V28.6937C132.894 29.7273 132.046 30.5639 130.999 30.5639C130.498 30.5647 130.017 30.3683 129.662 30.0179C129.307 29.6674 129.107 29.1917 129.105 28.6952V23.0602C129.105 21.2892 128.307 20.3792 126.889 20.3792C125.467 20.3792 124.596 21.2892 124.596 23.0602V28.6952C124.596 29.7273 123.749 30.5639 122.703 30.5639C122.455 30.5645 122.209 30.5166 121.979 30.423C121.75 30.3293 121.541 30.1918 121.365 30.0183C121.19 29.8447 121.05 29.6386 120.955 29.4115C120.859 29.1845 120.81 28.9411 120.81 28.6952V23.0602C120.81 21.2892 120.012 20.3792 118.591 20.3792C117.171 20.3792 116.299 21.2892 116.299 23.0602V28.6952C116.299 29.7273 115.453 30.5639 114.406 30.5639C114.158 30.5645 113.912 30.5166 113.682 30.423C113.453 30.3293 113.244 30.1918 113.068 30.0183C112.892 29.8447 112.753 29.6386 112.657 29.4115C112.562 29.1845 112.513 28.9411 112.512 28.6952V18.9518ZM134.14 26.628V26.5792C134.14 23.6999 136.358 22.3716 139.522 22.3716C140.633 22.3617 141.738 22.5446 142.785 22.9121V22.6907C142.785 21.1425 141.813 20.28 139.92 20.28C138.874 20.28 138.027 20.4281 137.304 20.6495C137.129 20.7138 136.944 20.7473 136.757 20.7487C136.552 20.7529 136.348 20.7165 136.158 20.6416C135.967 20.5668 135.794 20.455 135.647 20.3128C135.501 20.1706 135.385 20.0009 135.306 19.8136C135.226 19.6262 135.186 19.4251 135.186 19.222C135.186 18.5579 135.611 17.993 136.207 17.7702C137.404 17.3274 138.7 17.083 140.468 17.083C142.537 17.083 144.031 17.6235 144.977 18.5579C145.974 19.5412 146.422 20.9945 146.422 22.7655V28.767C146.422 29.0055 146.375 29.2415 146.282 29.4614C146.189 29.6813 146.053 29.8807 145.881 30.0479C145.71 30.2151 145.506 30.3469 145.283 30.4355C145.059 30.5241 144.82 30.5677 144.58 30.5639C143.483 30.5639 142.761 29.802 142.761 29.0143V28.9884C141.839 29.9975 140.567 30.6617 138.724 30.6617C136.207 30.6617 134.14 29.2357 134.14 26.628ZM142.836 25.7655V25.1029C142.074 24.7714 141.251 24.6033 140.419 24.6098C138.798 24.6098 137.803 25.2495 137.803 26.4311V26.48C137.803 27.4891 138.649 28.0799 139.87 28.0799C141.639 28.0799 142.836 27.1197 142.836 25.7655ZM148.442 18.9518C148.442 17.9182 149.289 17.083 150.335 17.083C151.383 17.083 152.229 17.9182 152.229 18.9518V19.5412C152.777 18.2632 153.674 17.083 154.797 17.083C155.966 17.083 156.639 17.8449 156.639 18.9029C156.639 19.8862 155.991 20.477 155.219 20.6495C153.301 21.0937 152.229 22.5441 152.229 25.2006V28.6937C152.229 29.7273 151.383 30.5639 150.335 30.5639C149.834 30.5647 149.353 30.3683 148.998 30.0179C148.643 29.6674 148.443 29.1917 148.442 28.6952V18.9518ZM157.785 14.1793C157.785 13.1443 158.632 12.3105 159.679 12.3105C160.726 12.3105 161.573 13.1443 161.573 14.1793V28.6937C161.573 29.7273 160.726 30.5639 159.679 30.5639C159.177 30.5647 158.696 30.3683 158.341 30.0179C157.986 29.6674 157.786 29.1917 157.785 28.6952V14.1779V14.1793ZM164.588 34.0815C164.04 33.886 163.391 33.4418 163.391 32.5333C163.387 32.3354 163.422 32.1387 163.496 31.9545C163.569 31.7703 163.678 31.6023 163.817 31.4603C163.956 31.3183 164.122 31.205 164.306 31.1272C164.49 31.0493 164.687 31.0083 164.887 31.0067C165.186 31.0067 165.36 31.0555 165.509 31.1059C165.833 31.2036 166.033 31.2539 166.307 31.2539C166.979 31.2539 167.304 31.1303 167.652 30.4662L167.777 30.17L163.219 19.7395C163.105 19.4649 163.037 19.1735 163.018 18.877C163.018 17.8205 163.841 17.083 164.887 17.083C165.833 17.083 166.381 17.5991 166.705 18.4846L169.596 26.1609L172.386 18.509C172.685 17.7227 173.232 17.083 174.206 17.083C175.176 17.083 175.997 17.8205 175.997 18.8052C175.997 19.0999 175.899 19.5182 175.825 19.6907L171.165 30.7364C170.043 33.4174 168.923 34.4265 166.656 34.4265C165.808 34.4265 165.211 34.3043 164.588 34.0815Z" fill="white"/>
<path fill-rule="evenodd" clip-rule="evenodd" d="M41.3861 23.8076C41.3861 35.092 32.1211 44.2402 20.693 44.2402C9.26493 44.2402 0 35.092 0 23.8076C0 12.5233 9.26493 3.375 20.693 3.375C32.1211 3.375 41.3861 12.5233 41.3861 23.8076Z" fill="#C4C4C4"/>
<path fill-rule="evenodd" clip-rule="evenodd" d="M23.3972 28.2194C23.5191 28.8878 24.156 29.3464 24.8451 29.3464H27.0127L28.2691 29.1739C26.2582 32.0863 22.7676 33.426 18.9504 32.8352C15.8428 32.3536 13.1733 30.2764 12.046 27.377C9.48966 20.7947 14.3572 14.5114 20.7016 14.5114C24.008 14.5114 26.9067 16.4218 28.5694 18.729C29.0104 19.3572 29.8867 19.5872 30.5236 19.1516C30.813 18.9575 31.0171 18.6617 31.0946 18.3241C31.1722 17.9865 31.1175 17.6323 30.9415 17.3332C29.7631 15.5149 28.1126 14.0443 26.1631 13.0756C24.2137 12.107 22.0371 11.6759 19.8616 11.8276C13.8116 12.2286 8.91513 17.1176 8.56693 23.0947C8.16361 30.0522 13.7507 35.7303 20.7016 35.7303C22.4347 35.7374 24.149 35.3739 25.7274 34.6647C27.3058 33.9554 28.7111 32.917 29.8476 31.6205L29.5835 33.0781V34.3949C29.5835 35.0734 30.0478 35.703 30.7253 35.8238C30.9276 35.8615 31.1358 35.8547 31.3351 35.8038C31.5344 35.7529 31.72 35.6592 31.8787 35.5293C32.0374 35.3993 32.1652 35.2364 32.2532 35.0521C32.3413 34.8677 32.3872 34.6664 32.3879 34.4624V26.5763H24.7755C24.5696 26.576 24.3661 26.6207 24.1796 26.7072C23.9931 26.7937 23.8282 26.9199 23.6965 27.0768C23.5649 27.2337 23.4698 27.4175 23.4181 27.615C23.3664 27.8125 23.3592 28.0188 23.3972 28.2194Z" fill="white"/>
</svg>
