<svg width="100" height="19" viewBox="0 0 100 19" fill="none" xmlns="http://www.w3.org/2000/svg">
<path d="M0.365467 12.3594V11.9727C0.365467 11.0508 0.49828 10.1992 0.763905 9.41797C1.02953 8.63672 1.40844 7.96094 1.90062 7.39062C2.40062 6.82031 2.99828 6.37891 3.69359 6.06641C4.3889 5.74609 5.16234 5.58594 6.0139 5.58594C6.87328 5.58594 7.65062 5.74609 8.34594 6.06641C9.04125 6.37891 9.6389 6.82031 10.1389 7.39062C10.6389 7.96094 11.0217 8.63672 11.2873 9.41797C11.553 10.1992 11.6858 11.0508 11.6858 11.9727V12.3594C11.6858 13.2812 11.553 14.1328 11.2873 14.9141C11.0217 15.6875 10.6389 16.3594 10.1389 16.9297C9.64672 17.5 9.05297 17.9453 8.35765 18.2656C7.66234 18.5781 6.8889 18.7344 6.03734 18.7344C5.17797 18.7344 4.40062 18.5781 3.70531 18.2656C3.01 17.9453 2.41234 17.5 1.91234 16.9297C1.41234 16.3594 1.02953 15.6875 0.763905 14.9141C0.49828 14.1328 0.365467 13.2812 0.365467 12.3594ZM1.76 11.9727V12.3594C1.76 13.0547 1.85375 13.7148 2.04125 14.3398C2.22875 14.957 2.50219 15.5078 2.86156 15.9922C3.22094 16.4688 3.66625 16.8438 4.1975 17.1172C4.72875 17.3906 5.34203 17.5273 6.03734 17.5273C6.72484 17.5273 7.33031 17.3906 7.85375 17.1172C8.385 16.8438 8.83031 16.4688 9.18969 15.9922C9.54906 15.5078 9.81859 14.957 9.99828 14.3398C10.1858 13.7148 10.2795 13.0547 10.2795 12.3594V11.9727C10.2795 11.2852 10.1858 10.6328 9.99828 10.0156C9.81859 9.39844 9.54515 8.84766 9.17797 8.36328C8.81859 7.87891 8.37328 7.49609 7.84203 7.21484C7.31078 6.93359 6.7014 6.79297 6.0139 6.79297C5.3264 6.79297 4.71703 6.93359 4.18578 7.21484C3.66234 7.49609 3.21703 7.87891 2.84984 8.36328C2.49047 8.84766 2.21703 9.39844 2.02953 10.0156C1.84984 10.6328 1.76 11.2852 1.76 11.9727ZM16.6344 18.5H15.2398V4.25C15.2398 3.38281 15.3883 2.65234 15.6852 2.05859C15.9898 1.46484 16.4195 1.01562 16.9742 0.710938C17.5367 0.40625 18.2047 0.253906 18.9781 0.253906C19.2203 0.253906 19.4703 0.269531 19.7281 0.300781C19.9859 0.324219 20.2359 0.375 20.4781 0.453125L20.3727 1.63672C20.1773 1.58203 19.9781 1.54687 19.775 1.53125C19.5797 1.50781 19.3492 1.49609 19.0836 1.49609C18.5758 1.49609 18.1383 1.60547 17.7711 1.82422C17.4039 2.03516 17.1227 2.34375 16.9273 2.75C16.732 3.15625 16.6344 3.65625 16.6344 4.25V18.5ZM20.3141 5.82031V6.96875H13.1422V5.82031H20.3141ZM23.443 18.5H22.0484V4.48438C22.0484 3.57031 22.2164 2.80078 22.5523 2.17578C22.8883 1.54297 23.3687 1.06641 23.9937 0.746094C24.6266 0.417969 25.3766 0.253906 26.2437 0.253906C26.775 0.253906 27.3102 0.3125 27.8492 0.429688C28.3883 0.546875 28.9312 0.71875 29.4781 0.945312L29.2437 2.16406C28.8375 1.98438 28.4039 1.83594 27.943 1.71875C27.4898 1.60156 26.9547 1.54297 26.3375 1.54297C25.3844 1.54297 24.6617 1.79297 24.1695 2.29297C23.6852 2.79297 23.443 3.52344 23.443 4.48438V18.5ZM26.4078 5.82031V6.96875H19.9391V5.82031H26.4078ZM30.2398 5.82031V18.5H28.8453V5.82031H30.2398ZM38.4228 17.5273C39.0166 17.5273 39.5712 17.418 40.0869 17.1992C40.6103 16.9727 41.04 16.6406 41.3759 16.2031C41.7197 15.7578 41.915 15.2148 41.9619 14.5742H43.2978C43.2587 15.3789 43.0127 16.0977 42.5595 16.7305C42.1142 17.3555 41.5283 17.8477 40.8017 18.207C40.083 18.5586 39.29 18.7344 38.4228 18.7344C37.54 18.7344 36.7587 18.5742 36.0791 18.2539C35.4072 17.9336 34.8447 17.4883 34.3916 16.918C33.9384 16.3398 33.5947 15.668 33.3603 14.9023C33.1337 14.1289 33.0205 13.2969 33.0205 12.4062V11.9141C33.0205 11.0234 33.1337 10.1953 33.3603 9.42969C33.5947 8.65625 33.9384 7.98438 34.3916 7.41406C34.8447 6.83594 35.4072 6.38672 36.0791 6.06641C36.7509 5.74609 37.5283 5.58594 38.4111 5.58594C39.3173 5.58594 40.1298 5.76953 40.8486 6.13672C41.5752 6.50391 42.1533 7.02344 42.583 7.69531C43.0205 8.36719 43.2587 9.16406 43.2978 10.0859H41.9619C41.9228 9.40625 41.7431 8.82031 41.4228 8.32812C41.1025 7.83594 40.6806 7.45703 40.1572 7.19141C39.6337 6.92578 39.0517 6.79297 38.4111 6.79297C37.6923 6.79297 37.0791 6.93359 36.5712 7.21484C36.0634 7.48828 35.6494 7.86719 35.3291 8.35156C35.0166 8.82812 34.7861 9.375 34.6377 9.99219C34.4892 10.6016 34.415 11.2422 34.415 11.9141V12.4062C34.415 13.0859 34.4853 13.7344 34.6259 14.3516C34.7744 14.9609 35.0048 15.5039 35.3173 15.9805C35.6377 16.457 36.0517 16.8359 36.5595 17.1172C37.0752 17.3906 37.6962 17.5273 38.4228 17.5273ZM50.6605 18.7344C49.8323 18.7344 49.0706 18.582 48.3753 18.2773C47.6878 17.9727 47.0862 17.543 46.5706 16.9883C46.0628 16.4336 45.6683 15.7773 45.387 15.0195C45.1136 14.2539 44.9769 13.418 44.9769 12.5117V12.0078C44.9769 11.0312 45.1214 10.1484 45.4105 9.35938C45.6995 8.57031 46.098 7.89453 46.6058 7.33203C47.1136 6.76953 47.6917 6.33984 48.3402 6.04297C48.9964 5.73828 49.6839 5.58594 50.4027 5.58594C51.2073 5.58594 51.9222 5.73047 52.5472 6.01953C53.1722 6.30078 53.6956 6.70312 54.1175 7.22656C54.5472 7.74219 54.8714 8.35547 55.0902 9.06641C55.3089 9.76953 55.4183 10.5469 55.4183 11.3984V12.2539H45.8206V11.0586H54.0237V10.8945C54.0081 10.1836 53.8636 9.51953 53.5902 8.90234C53.3245 8.27734 52.9261 7.76953 52.3948 7.37891C51.8636 6.98828 51.1995 6.79297 50.4027 6.79297C49.8089 6.79297 49.262 6.91797 48.762 7.16797C48.2698 7.41797 47.8441 7.77734 47.4847 8.24609C47.1331 8.70703 46.8597 9.25781 46.6644 9.89844C46.4769 10.5312 46.3831 11.2344 46.3831 12.0078V12.5117C46.3831 13.2148 46.4847 13.8711 46.6878 14.4805C46.8987 15.082 47.1956 15.6133 47.5784 16.0742C47.9691 16.5352 48.43 16.8945 48.9612 17.1523C49.4925 17.4102 50.0784 17.5391 50.7191 17.5391C51.4691 17.5391 52.1331 17.4023 52.7112 17.1289C53.2894 16.8477 53.8089 16.4062 54.2698 15.8047L55.1487 16.4844C54.8753 16.8906 54.5316 17.2656 54.1175 17.6094C53.7112 17.9531 53.223 18.2266 52.6527 18.4297C52.0823 18.6328 51.4183 18.7344 50.6605 18.7344ZM66.2178 9.19531H67.6475C68.5225 9.19531 69.253 9.04688 69.8389 8.75C70.4327 8.44531 70.878 8.04297 71.1748 7.54297C71.4795 7.04297 71.6319 6.48828 71.6319 5.87891C71.6319 5.19141 71.503 4.58984 71.2452 4.07422C70.9873 3.55078 70.5928 3.14453 70.0616 2.85547C69.5381 2.55859 68.8662 2.41016 68.0459 2.41016C67.3272 2.41016 66.6866 2.55078 66.1241 2.83203C65.5616 3.11328 65.1162 3.51562 64.7881 4.03906C64.46 4.5625 64.2959 5.1875 64.2959 5.91406H62.9014C62.9014 4.98438 63.1241 4.16797 63.5694 3.46484C64.0147 2.75391 64.628 2.19922 65.4092 1.80078C66.1905 1.40234 67.0694 1.20312 68.0459 1.20312C69.0537 1.20312 69.9287 1.38672 70.6709 1.75391C71.4209 2.12109 71.9991 2.65625 72.4053 3.35938C72.8194 4.0625 73.0264 4.91797 73.0264 5.92578C73.0264 6.44141 72.9131 6.94922 72.6866 7.44922C72.4678 7.94922 72.1397 8.40234 71.7022 8.80859C71.2647 9.20703 70.7217 9.52734 70.0733 9.76953C69.4248 10.0117 68.6709 10.1328 67.8116 10.1328H66.2178V9.19531ZM66.2178 10.4023V9.47656H67.8116C68.7881 9.47656 69.6241 9.58984 70.3194 9.81641C71.0147 10.0352 71.585 10.3477 72.0303 10.7539C72.4834 11.1523 72.8155 11.6172 73.0264 12.1484C73.2373 12.6797 73.3428 13.25 73.3428 13.8594C73.3428 14.6406 73.2139 15.332 72.9561 15.9336C72.6983 16.5352 72.3311 17.0469 71.8545 17.4688C71.3858 17.8828 70.8311 18.1992 70.1905 18.418C69.5577 18.6289 68.8623 18.7344 68.1045 18.7344C67.417 18.7344 66.7452 18.6328 66.0889 18.4297C65.4405 18.2266 64.8545 17.9258 64.3311 17.5273C63.8155 17.1211 63.4053 16.6133 63.1006 16.0039C62.7959 15.3867 62.6436 14.6758 62.6436 13.8711H64.0381C64.0381 14.5898 64.21 15.2266 64.5537 15.7812C64.8975 16.3281 65.3741 16.7578 65.9834 17.0703C66.6006 17.375 67.3077 17.5273 68.1045 17.5273C68.9092 17.5273 69.5967 17.3906 70.167 17.1172C70.7452 16.8359 71.1866 16.4258 71.4912 15.8867C71.7959 15.3477 71.9483 14.6875 71.9483 13.9062C71.9483 13.0859 71.7647 12.418 71.3975 11.9023C71.0381 11.3867 70.5342 11.0078 69.8858 10.7656C69.2452 10.5234 68.4991 10.4023 67.6475 10.4023H66.2178ZM84.1156 1.30859H84.3148V2.53906H84.1156C83.0375 2.53906 82.0766 2.71484 81.2328 3.06641C80.3969 3.41797 79.6898 3.92578 79.1117 4.58984C78.5414 5.24609 78.1078 6.04297 77.8109 6.98047C77.5141 7.91797 77.3656 8.96875 77.3656 10.1328V12.4883C77.3656 13.2773 77.4711 13.9844 77.682 14.6094C77.893 15.2266 78.1859 15.7539 78.5609 16.1914C78.9359 16.6289 79.3734 16.9609 79.8734 17.1875C80.3734 17.4141 80.9125 17.5273 81.4906 17.5273C82.0609 17.5273 82.5726 17.4102 83.0258 17.1758C83.4789 16.9414 83.8617 16.6133 84.1742 16.1914C84.4945 15.7695 84.7367 15.2852 84.9008 14.7383C85.0726 14.1836 85.1586 13.5898 85.1586 12.957C85.1586 12.3555 85.0805 11.7891 84.9242 11.2578C84.7758 10.7188 84.5453 10.2422 84.2328 9.82812C83.9203 9.41406 83.5297 9.08984 83.0609 8.85547C82.5922 8.62109 82.0414 8.50391 81.4086 8.50391C80.6898 8.50391 80.018 8.66797 79.393 8.99609C78.768 9.32422 78.2562 9.76172 77.8578 10.3086C77.4672 10.8555 77.2601 11.4531 77.2367 12.1016L76.4281 12.0898C76.4828 11.3555 76.6508 10.6953 76.932 10.1094C77.2133 9.51562 77.5844 9.01172 78.0453 8.59766C78.5141 8.17578 79.0492 7.85547 79.6508 7.63672C80.2601 7.41016 80.9164 7.29688 81.6195 7.29688C82.4398 7.29688 83.1547 7.44531 83.7641 7.74219C84.3812 8.03906 84.893 8.44922 85.2992 8.97266C85.7133 9.48828 86.0219 10.0859 86.225 10.7656C86.4359 11.4375 86.5414 12.1484 86.5414 12.8984C86.5414 13.7188 86.4242 14.4844 86.1898 15.1953C85.9633 15.8984 85.6273 16.5156 85.182 17.0469C84.7445 17.5781 84.2133 17.9922 83.5883 18.2891C82.9711 18.5859 82.2719 18.7344 81.4906 18.7344C80.6312 18.7344 79.8617 18.5703 79.182 18.2422C78.5023 17.9141 77.9203 17.4609 77.4359 16.8828C76.9594 16.3047 76.5922 15.6406 76.3344 14.8906C76.0844 14.1328 75.9594 13.3242 75.9594 12.4648V10.9648C75.9594 9.51172 76.1273 8.19531 76.4633 7.01562C76.7992 5.82813 77.3031 4.80859 77.975 3.95703C78.6547 3.10547 79.5023 2.45313 80.518 2C81.5414 1.53906 82.7406 1.30859 84.1156 1.30859ZM91.0564 10.0625L89.9548 9.74609L90.7869 1.4375H99.3181V2.75H91.9822L91.3845 8.49219C91.6814 8.28125 92.1111 8.07422 92.6736 7.87109C93.2439 7.66016 93.8845 7.55469 94.5955 7.55469C95.3533 7.55469 96.0408 7.68359 96.658 7.94141C97.283 8.19141 97.8181 8.55859 98.2634 9.04297C98.7088 9.51953 99.0525 10.0977 99.2947 10.7773C99.5369 11.4492 99.658 12.2109 99.658 13.0625C99.658 13.8828 99.5564 14.6367 99.3533 15.3242C99.1502 16.0117 98.8416 16.6133 98.4275 17.1289C98.0134 17.6367 97.4861 18.0312 96.8455 18.3125C96.2048 18.5938 95.4431 18.7344 94.5603 18.7344C93.8806 18.7344 93.24 18.6406 92.6384 18.4531C92.0447 18.2578 91.5134 17.9648 91.0447 17.5742C90.5759 17.1836 90.1931 16.6914 89.8963 16.0977C89.6072 15.5039 89.4275 14.8086 89.3572 14.0117H90.7048C90.7986 14.7773 91.0056 15.4219 91.3259 15.9453C91.6463 16.4688 92.0759 16.8633 92.615 17.1289C93.1619 17.3945 93.8103 17.5273 94.5603 17.5273C95.1697 17.5273 95.7009 17.4297 96.1541 17.2344C96.615 17.0391 96.9978 16.7539 97.3025 16.3789C97.615 15.9961 97.8494 15.5312 98.0056 14.9844C98.1697 14.4297 98.2517 13.7969 98.2517 13.0859C98.2517 12.4766 98.1658 11.918 97.9939 11.4102C97.822 10.8945 97.5681 10.4453 97.2322 10.0625C96.9041 9.67188 96.4978 9.37109 96.0134 9.16016C95.5291 8.94922 94.9744 8.84375 94.3494 8.84375C93.5369 8.84375 92.8884 8.95312 92.4041 9.17188C91.9275 9.39062 91.4783 9.6875 91.0564 10.0625Z" fill="white"/>
</svg>
