<svg width="178" height="25" viewBox="0 0 178 25" fill="none" xmlns="http://www.w3.org/2000/svg">
<g clip-path="url(#clip0_1746_5675)">
<path d="M122.897 9.75552C122.897 6.84341 121.105 4.73242 117.673 4.73242H106.579V19.8226H110.227V14.6697H114.543L118.773 19.8211H122.884V19.4884L118.773 14.5832C121.338 14.0551 122.897 12.1738 122.897 9.75552ZM117.264 11.6218H110.227V7.85787H117.264C118.565 7.85787 119.401 8.55009 119.401 9.74512C119.4 10.9594 118.593 11.6218 117.264 11.6218Z" fill="white"/>
<path d="M178 4.73242H174.589V10.4537H165.394V4.73242H161.703V19.8226H165.394V13.8805H174.589V19.8226H178V4.73242Z" fill="white"/>
<path d="M96.8141 4.73242L92.7574 17.4296H92.5349L88.4552 4.73242H81.959V19.8226H85.4334V7.42672H85.65L89.7065 19.8226H95.3037L99.3835 7.42672H99.598V19.8226H103.182V4.73242H96.8141Z" fill="white"/>
<path d="M57.1171 10.9076C55.828 10.7734 53.4246 10.5541 52.1355 10.4213C50.8674 10.2915 50.134 9.91548 50.134 9.07859C50.134 8.27597 50.9122 7.59867 54.052 7.59867C56.8229 7.59867 59.3801 8.19093 61.6118 9.26657V5.89048C59.3801 4.82678 56.9275 4.30762 53.8638 4.30762C49.5664 4.30762 46.5908 6.10233 46.5908 9.13677C46.5908 11.7058 48.337 13.1081 51.8398 13.4901C53.1079 13.6287 55.2634 13.8182 56.7676 13.9421C58.4062 14.0778 58.8932 14.5776 58.8932 15.3235C58.8932 16.347 57.7445 16.9825 54.8347 16.9825C51.8727 16.9825 48.8747 16.0158 46.7417 14.6626V18.1372C48.455 19.2814 51.4216 20.2526 54.7257 20.2526C59.4204 20.2526 62.4334 18.4445 62.4334 15.2071C62.4334 12.771 60.8246 11.2926 57.1171 10.9076Z" fill="white"/>
<path d="M64.8218 4.73242V19.8226H78.9151V16.7389H68.2962V13.6776H78.7343V10.6178H68.2962V7.81461H78.9151V4.73242H64.8218Z" fill="white"/>
<path d="M154.164 10.9071C152.875 10.7729 150.472 10.5535 149.183 10.4208C147.915 10.291 147.181 9.91504 147.181 9.07811C147.181 8.27548 147.96 7.59818 151.099 7.59818C153.871 7.59818 156.427 8.19045 158.66 9.26608V5.89C156.426 4.8278 153.975 4.30713 150.911 4.30713C146.613 4.30713 143.638 6.10184 143.638 9.13629C143.638 11.7053 145.384 13.1077 148.887 13.4895C150.156 13.6283 152.311 13.8178 153.815 13.9416C155.454 14.0774 155.941 14.5771 155.941 15.323C155.941 16.3464 154.792 16.982 151.882 16.982C148.92 16.982 145.922 16.0153 143.789 14.6622V18.1367C145.503 19.281 148.469 20.2522 151.773 20.2522C156.468 20.2522 159.481 18.444 159.481 15.2067C159.481 12.7705 157.874 11.292 154.164 10.9071Z" fill="white"/>
<path d="M137.508 4.73242V12.4573C137.508 15.3843 135.728 16.9911 133.051 16.9911C130.359 16.9911 128.594 15.4082 128.594 12.4125V4.73242H124.967V12.0694C124.967 17.549 128.395 20.2537 133.103 20.2537C137.633 20.2537 141.132 17.6549 141.132 12.2484V4.73242H137.508Z" fill="white"/>
<path d="M34.0929 12.1902C34.0929 12.9257 33.7239 13.0391 32.7888 13.0391C31.7969 13.0391 31.6267 12.8691 31.5132 12.1335C31.3145 10.2374 30.0388 8.62319 27.8864 8.45461C27.2068 8.39792 27.0365 8.14281 27.0365 7.29394C27.0365 6.50176 27.15 6.13327 27.7729 6.13327C31.5132 6.13327 34.0929 9.1334 34.0929 12.1902ZM39.5345 12.1902C39.5345 6.50176 35.6806 0.5 26.7811 0.5H9.09082C8.73383 0.5 8.51275 0.686483 8.51275 1.01171C8.51275 1.18924 8.64569 1.34887 8.76669 1.44285C9.41495 1.95158 10.359 2.51103 11.6257 3.14358C12.8536 3.75674 13.802 4.15507 14.7655 4.54593C15.1628 4.70705 15.3212 4.88309 15.3212 5.11881C15.3212 5.42613 15.1045 5.62156 14.6564 5.62156H0.615415C0.200159 5.62156 0 5.8886 0 6.15863C0 6.38838 0.0806613 6.57188 0.27634 6.77477C1.41605 7.96229 3.22794 9.39449 5.87632 11.049C8.19758 12.499 11.0655 14.064 13.3405 15.1531C13.7229 15.3365 13.8558 15.5484 13.8469 15.7677C13.8364 16.0213 13.6362 16.2362 13.1941 16.2362H6.75762C6.39166 16.2362 6.18851 16.4286 6.18851 16.724C6.18851 16.8881 6.32146 17.097 6.49473 17.2551C7.95858 18.5813 10.2993 20.0315 13.4182 21.3577C17.5782 23.1271 21.8129 24.1908 26.5689 24.1908C35.5821 24.1908 39.5345 17.455 39.5345 12.1902ZM27.7729 20.2567C23.3515 20.2567 19.6679 16.6613 19.6679 12.1902C19.6679 7.77432 23.3515 4.23712 27.7729 4.23712C32.3078 4.23712 35.8495 7.77581 35.8495 12.1902C35.8495 16.6613 32.3078 20.2567 27.7729 20.2567Z" fill="white"/>
</g>
<defs>
<clipPath id="clip0_1746_5675">
<rect width="178" height="24" fill="white" transform="translate(0 0.5)"/>
</clipPath>
</defs>
</svg>
