<svg width="191" height="57" viewBox="0 0 191 57" fill="none" xmlns="http://www.w3.org/2000/svg">
<g clip-path="url(#clip0_1746_5599)">
<path d="M94.4371 20.3923C94.4371 18.5535 92.8813 17.6759 89.8734 17.6759C86.8137 17.6759 85.2579 18.5535 85.2579 20.3923V20.9774C85.2579 22.3147 86.4507 22.7744 87.1767 23.0251L95.3706 25.3654C98.5859 26.2848 100.92 27.9983 100.92 30.7983V33.7236C100.92 36.8998 98.171 39.9087 89.7179 39.9087C81.3684 39.9087 78.5161 36.8998 78.5161 33.7236V31.3416C78.5161 30.6729 78.8273 30.3386 79.657 30.3386H83.5984C84.4281 30.3386 84.7393 30.6311 84.7393 31.3416V33.055C84.7393 34.8938 86.5025 35.7714 89.7179 35.7714C92.8813 35.7714 94.6964 34.8938 94.6964 33.055V31.8431C94.6964 30.2968 92.8294 29.6699 90.7032 29.0431L83.4428 26.8281C81.2128 26.1595 79.1903 24.2371 79.1903 21.9386V19.7236C79.1903 16.5475 81.6277 13.5386 89.8734 13.5386C98.0673 13.5386 100.712 16.5475 100.712 19.7236V21.2699C100.712 21.8968 100.401 22.2311 99.5194 22.2311H95.578C94.8001 22.2311 94.489 21.9386 94.489 21.2699V20.3923H94.4371Z" fill="#E5E5E5"/>
<path d="M167.3 13.8311C168.078 13.8311 168.493 14.04 168.493 14.7505V17.1325C168.493 17.8012 168.13 18.0937 167.3 18.0937H155.321V24.237H166.522C167.352 24.237 167.715 24.446 167.715 25.1564V27.5803C167.715 28.249 167.404 28.5415 166.522 28.5415H155.321V38.6549C155.321 39.3236 155.061 39.6579 154.18 39.6579H150.083C149.253 39.6579 148.942 39.3654 148.942 38.6549V14.834C148.942 14.1654 149.201 13.8311 150.083 13.8311H167.3Z" fill="#E5E5E5"/>
<path d="M180.317 35.4788C180.265 35.4788 179.539 35.5624 179.28 35.5624C177.309 35.5624 176.739 34.9355 176.739 33.5564V21.6878C176.739 21.0191 176.376 20.7266 175.546 20.7266H171.708C170.93 20.7266 170.567 20.9773 170.567 21.6878V34.8101C170.567 37.7773 173.057 39.8669 177.309 39.8669C178.346 39.8669 179.28 39.7833 180.11 39.6161C180.161 39.6161 180.213 39.5743 180.317 39.5743C180.421 39.5743 180.628 35.437 180.317 35.4788Z" fill="#E5E5E5"/>
<path d="M189.444 20.7266H185.555C184.725 20.7266 184.414 20.9773 184.414 21.6878V33.9325L184.673 38.6549C184.777 39.3236 184.985 39.6161 185.866 39.6161H189.496C190.274 39.6161 190.637 39.3654 190.637 38.6549V21.6878C190.585 20.9773 190.222 20.7266 189.444 20.7266Z" fill="#E5E5E5"/>
<path d="M145.467 20.7266H141.889C141.111 20.7266 140.852 21.0609 140.644 21.6878L133.28 40.0758L130.999 46.2609C130.739 46.8878 131.258 47.2221 132.139 47.2221H134.94C135.77 47.2221 136.081 46.7624 136.236 46.2609L146.608 21.6878C146.868 21.0609 146.297 20.7266 145.467 20.7266Z" fill="#E5E5E5"/>
<path d="M114.04 35.437C113.262 35.2698 112.899 35.646 112.899 36.3146V38.5295C112.899 39.1982 113.418 39.4072 114.04 39.5325V35.437Z" fill="#E5E5E5"/>
<path d="M180.213 35.5205C180.991 35.3533 181.354 35.7295 181.354 36.3981V38.5712C181.354 39.2399 180.836 39.4489 180.213 39.5742V35.5205Z" fill="#E5E5E5"/>
<path d="M134.162 27.9567C134.006 27.5806 131.621 21.6463 131.621 21.6463C131.361 21.0612 131.154 20.6851 130.324 20.6851H126.435C125.657 20.6851 125.086 21.0194 125.346 21.6463L131.206 35.3119C131.206 35.3119 131.673 35.7716 131.828 35.3119C132.45 33.5985 133.954 29.6701 134.162 29.1686C134.369 28.5 134.317 28.3328 134.162 27.9567Z" fill="#E5E5E5"/>
<path d="M117.308 20.4341C113.47 20.4341 111.084 21.7714 109.788 22.6072L109.684 21.6878C109.632 21.0192 109.425 20.7266 108.543 20.7266H104.913C104.083 20.7266 103.72 20.9774 103.72 21.6878V46.2609C103.72 46.9296 104.031 47.2221 104.913 47.2221H108.802C109.58 47.2221 109.892 46.9714 109.892 46.2609V37.9027V26.4938C110.877 25.9087 112.951 24.7386 115.337 24.7386C117.515 24.7386 117.878 25.7415 117.878 26.7027V33.5565C117.878 34.5595 117.515 35.5624 115.337 35.5624C114.818 35.5624 114.352 35.5206 113.885 35.4371C113.574 35.3953 113.574 39.449 113.885 39.4908C114.87 39.6998 115.959 39.8669 117.256 39.8669C121.923 39.8669 124.049 37.6938 124.049 34.3505V25.9505C124.153 22.5654 121.975 20.4341 117.308 20.4341Z" fill="#E5E5E5"/>
<path d="M42.94 3.50901C40.3989 2.96573 37.9096 2.6314 35.3685 2.54782L35.6278 4.92991C37.8059 5.01349 39.9322 5.30603 42.1103 5.76573C58.0831 9.31797 67.5216 22.5657 63.4247 35.4374C61.6096 40.703 57.772 45.1329 52.7934 48.2254L47.0888 42.7508C46.9851 42.6672 46.9851 42.5418 46.9851 42.4165L49.2151 36.6493L36.9762 38.4881C36.8724 38.4881 36.7169 38.4881 36.6131 38.4045C36.5094 38.3209 36.4576 38.2374 36.4576 38.1538L36.5094 36.5239C36.5094 36.3986 36.5613 36.315 36.665 36.2732L46.7258 30.2971C46.2591 28.918 43.7698 21.3538 40.8657 18.3448C40.7619 18.2613 40.7619 18.0941 40.8138 18.0105C40.8656 17.9269 41.0212 17.8015 41.1768 17.8015L56.1125 17.2165L35.4722 9.1508C35.3685 9.10901 35.2648 8.98364 35.2648 8.85827L34.3313 0.917969L10.4239 6.3508L12.0834 11.909C12.1353 12.0344 12.0834 12.1598 11.9278 12.2433L4.14884 16.8404L3.9414 17.6762L14.3652 18.4702C14.5208 18.4702 14.6764 18.5956 14.7283 18.721L20.2254 36.9836C20.2254 37.0254 20.2254 37.0672 20.2254 37.109L20.381 37.5687L19.9142 37.4016C19.8624 37.4016 19.7587 37.4016 19.7068 37.4016L6.94927 33.515L7.98647 41.2045C4.35628 36.1478 2.9042 30.0045 4.51186 23.903C4.61558 23.5269 4.7193 23.1926 4.82302 22.8165C5.18604 21.6881 6.06765 19.9329 6.84555 18.5538L3.73396 18.303C3.11164 19.3896 2.59304 20.5598 2.17816 21.7299L2.07444 21.8135C1.867 22.3568 1.71142 22.9001 1.55584 23.4433C-2.33365 37.318 7.98647 51.4016 25.204 55.2463C42.8882 59.1747 61.2984 50.7747 66.1733 36.5239C71.0481 22.2732 60.6243 7.43737 42.94 3.50901ZM26.3967 35.312L44.5996 30.9239L34.435 35.8553L26.3967 35.312Z" fill="#E5E5E5"/>
<path d="M42.4734 52.4881L35.5242 41.4553L27.5896 40.7866L39.2062 53.0732C40.2953 52.9478 41.3843 52.7389 42.4734 52.4881Z" fill="#E5E5E5"/>
</g>
<defs>
<clipPath id="clip0_1746_5599">
<rect width="191" height="56" fill="white" transform="translate(0 0.5)"/>
</clipPath>
</defs>
</svg>
