<svg width="267" height="47" viewBox="0 0 267 47" fill="none" xmlns="http://www.w3.org/2000/svg">
<g clip-path="url(#clip0_1746_5587)">
<path d="M13.2413 37.501C21.7402 37.501 26.4826 31.9207 26.4826 23.6255V1.65625H19.8619V23.6255C19.8619 28.1 17.4672 30.9152 13.2413 30.9152C9.01534 30.9152 6.62063 28.1 6.62063 23.6255V1.65625H0V23.6255C0 31.9207 4.74245 37.501 13.2413 37.501Z" fill="#E5E5E5"/>
<path d="M32.0413 36.8476H38.1454V34.1327C38.8027 34.9874 41.2443 37.501 45.4233 37.501C52.4665 37.501 57.4438 31.8203 57.4438 23.7263C57.4438 15.582 52.8423 9.90109 45.799 9.90109C41.573 9.90109 39.1314 12.4148 38.5209 13.3197V0.5H32.0413V36.8476ZM38.3331 23.7765C38.3331 18.8497 41.0565 16.0344 44.625 16.0344C48.3814 16.0344 50.9171 19.2016 50.9171 23.7765C50.9171 28.4519 48.2876 31.3678 44.625 31.3678C40.6808 31.3678 38.3331 27.9491 38.3331 23.7765Z" fill="#E5E5E5"/>
<path d="M59.844 23.7763C59.844 31.6692 64.868 37.5008 72.7566 37.5008C78.8608 37.5008 82.1476 33.5795 83.0866 31.7195L78.8137 28.2507C78.1093 29.3565 76.1842 31.4681 72.8505 31.4681C69.235 31.4681 66.6055 28.9545 66.4645 25.4352H83.7439C83.7909 24.9327 83.7909 24.4299 83.7909 23.9271C83.7909 15.3304 79.471 9.90088 71.8643 9.90088C64.8681 9.90088 59.844 15.8331 59.844 23.7763ZM66.6525 20.9107C66.9341 17.8943 68.9063 15.5818 71.9584 15.5818C74.9164 15.5818 77.0763 17.6932 77.2172 20.9107H66.6525Z" fill="#E5E5E5"/>
<path d="M100.488 9.90088C97.248 9.90088 94.8062 11.761 93.7264 14.3752V10.5544H87.3875V36.8474H93.8673V25.3851C93.8673 20.1566 95.6515 16.9391 100.488 16.9391V9.90088Z" fill="#E5E5E5"/>
<path d="M111.82 37.5008C117.126 37.5008 121.259 34.2833 121.259 29.1555C121.259 19.7544 109.614 21.7654 109.614 17.5927C109.614 16.2856 110.647 15.4812 112.149 15.4812C114.45 15.4812 115.812 16.9894 116.563 17.9949L120.836 14.5763C119.662 12.5151 117.079 9.90088 112.431 9.90088C107.407 9.90088 103.509 12.8167 103.509 17.6932C103.509 27.0441 115.107 25.4856 115.107 29.5074C115.107 31.0157 113.933 31.8702 112.102 31.8702C109.332 31.8702 107.688 30.513 106.468 29.0046L102.664 32.6244C103.979 34.8866 106.984 37.5008 111.82 37.5008Z" fill="#E5E5E5"/>
<path d="M133.024 37.5011C136.217 37.5011 138.564 35.5907 139.597 33.7808V36.8476H145.936V10.5547H139.457V26.3405C139.457 29.1557 137.766 31.2671 135.09 31.2671C132.883 31.2671 131.005 29.4575 131.005 26.5415V10.5547H124.525V25.7372C124.525 31.3175 126.028 37.5011 133.024 37.5011Z" fill="#E5E5E5"/>
<path d="M152.588 44.0866C154.795 45.3937 158.223 46.4998 161.604 46.4998C168.835 46.4998 174.798 43.3325 174.798 33.5294V10.5544H168.694V13.3195C167.99 12.314 165.501 9.90088 161.369 9.90088C154.373 9.90088 149.396 15.632 149.396 23.7261C149.396 31.82 154.044 37.5008 161.134 37.5008C165.407 37.5008 167.802 34.8866 168.318 34.1325V35.339C168.318 39.4112 165.078 40.5676 161.557 40.5676C158.176 40.5676 155.359 39.2102 154.56 38.7578L152.588 44.0866ZM168.506 23.6757C168.506 28.3512 165.971 31.3676 162.214 31.3676C158.552 31.3676 155.922 28.3008 155.922 23.6757C155.922 19.0506 158.505 16.0342 162.167 16.0342C165.97 16.0342 168.506 19.2014 168.506 23.6757Z" fill="#E5E5E5"/>
<path d="M181.476 44.0866C183.683 45.3937 187.111 46.4998 190.492 46.4998C197.723 46.4998 203.686 43.3325 203.686 33.5294V10.5544H197.582V13.3195C196.878 12.314 194.389 9.90088 190.257 9.90088C183.261 9.90088 178.283 15.632 178.283 23.7261C178.283 31.82 182.932 37.5008 190.022 37.5008C194.295 37.5008 196.69 34.8866 197.206 34.1325V35.339C197.206 39.4112 193.967 40.5676 190.445 40.5676C187.064 40.5676 184.247 39.2102 183.449 38.7578L181.476 44.0866ZM197.394 23.6757C197.394 28.3512 194.859 31.3676 191.102 31.3676C187.44 31.3676 184.81 28.3008 184.81 23.6757C184.81 19.0506 187.393 16.0342 191.055 16.0342C194.859 16.0342 197.394 19.2014 197.394 23.6757Z" fill="#E5E5E5"/>
<path d="M207.266 23.7763C207.266 31.6692 212.29 37.5008 220.177 37.5008C226.282 37.5008 229.569 33.5795 230.508 31.7195L226.236 28.2507C225.53 29.3565 223.606 31.4681 220.273 31.4681C216.656 31.4681 214.028 28.9545 213.886 25.4352H231.165C231.213 24.9327 231.213 24.4299 231.213 23.9271C231.213 15.3304 226.893 9.90088 219.285 9.90088C212.29 9.90088 207.266 15.8331 207.266 23.7763ZM214.075 20.9107C214.356 17.8943 216.327 15.5818 219.381 15.5818C222.339 15.5818 224.498 17.6932 224.638 20.9107H214.075Z" fill="#E5E5E5"/>
<path d="M242.321 37.5008C247.628 37.5008 251.76 34.2833 251.76 29.1555C251.76 19.7544 240.116 21.7654 240.116 17.5927C240.116 16.2856 241.148 15.4812 242.65 15.4812C244.951 15.4812 246.314 16.9894 247.064 17.9949L251.338 14.5763C250.164 12.5151 247.581 9.90088 242.932 9.90088C237.907 9.90088 234.011 12.8167 234.011 17.6932C234.011 27.0441 245.608 25.4856 245.608 29.5074C245.608 31.0157 244.434 31.8702 242.603 31.8702C239.834 31.8702 238.189 30.513 236.969 29.0046L233.165 32.6244C234.481 34.8866 237.486 37.5008 242.321 37.5008Z" fill="#E5E5E5"/>
<path d="M255.824 10.5545H253.194V16.1851H255.777V26.5414C255.777 33.6801 258.361 37.1993 264.23 37.1993C266.015 37.1993 267 36.9479 267 36.9479V31.0158C266.483 31.0659 266.248 31.0659 265.826 31.0659C263.338 31.0659 262.211 30.2616 262.211 26.3403V16.1851H266.811V10.5545H262.211V5.02441H255.824V10.5545Z" fill="#E5E5E5"/>
</g>
<defs>
<clipPath id="clip0_1746_5587">
<rect width="267" height="46" fill="white" transform="translate(0 0.5)"/>
</clipPath>
</defs>
</svg>
