<svg width="17" height="17" viewBox="0 0 17 17" fill="none" xmlns="http://www.w3.org/2000/svg">
<path d="M8.52592 5.74714C6.99575 5.74714 5.74701 6.99588 5.74701 8.52605C5.74701 10.0562 6.99575 11.305 8.52592 11.305C10.0561 11.305 11.3048 10.0562 11.3048 8.52605C11.3048 6.99588 10.0561 5.74714 8.52592 5.74714ZM16.8606 8.52605C16.8606 7.37529 16.871 6.23496 16.8064 5.08629C16.7417 3.75208 16.4374 2.56797 15.4617 1.59233C14.484 0.614601 13.302 0.312319 11.9678 0.247693C10.817 0.183068 9.67667 0.193491 8.528 0.193491C7.37725 0.193491 6.23691 0.183068 5.08824 0.247693C3.75403 0.312319 2.56992 0.616686 1.59428 1.59233C0.616554 2.57005 0.314272 3.75208 0.249647 5.08629C0.185021 6.23705 0.195444 7.37738 0.195444 8.52605C0.195444 9.67472 0.185021 10.8171 0.249647 11.9658C0.314272 13.3 0.618639 14.4841 1.59428 15.4598C2.57201 16.4375 3.75403 16.7398 5.08824 16.8044C6.239 16.869 7.37933 16.8586 8.528 16.8586C9.67876 16.8586 10.8191 16.869 11.9678 16.8044C13.302 16.7398 14.4861 16.4354 15.4617 15.4598C16.4395 14.482 16.7417 13.3 16.8064 11.9658C16.8731 10.8171 16.8606 9.67681 16.8606 8.52605ZM8.52592 12.8018C6.15978 12.8018 4.25019 10.8922 4.25019 8.52605C4.25019 6.15991 6.15978 4.25032 8.52592 4.25032C10.8921 4.25032 12.8016 6.15991 12.8016 8.52605C12.8016 10.8922 10.8921 12.8018 8.52592 12.8018ZM12.9768 5.07378C12.4243 5.07378 11.9782 4.62765 11.9782 4.07521C11.9782 3.52276 12.4243 3.07664 12.9768 3.07664C13.5292 3.07664 13.9753 3.52276 13.9753 4.07521C13.9755 4.20639 13.9498 4.33631 13.8997 4.45754C13.8495 4.57877 13.776 4.68891 13.6832 4.78167C13.5905 4.87443 13.4803 4.94798 13.3591 4.99811C13.2379 5.04823 13.1079 5.07395 12.9768 5.07378Z" fill="#FFFFFF"/>
</svg>
