<svg width="13" height="18" viewBox="0 0 13 18" fill="none" xmlns="http://www.w3.org/2000/svg">
<path d="M2.47665 1.03242L3.37332 0.745756C4.21415 0.477423 5.11249 0.91159 5.47249 1.75992L6.18915 3.44992C6.50082 4.18576 6.32749 5.05159 5.76082 5.58992L4.18165 7.08826C4.27915 7.98492 4.58082 8.86742 5.08582 9.73576C5.56538 10.5759 6.20863 11.3112 6.97749 11.8983L8.87415 11.2649C9.59248 11.0258 10.3758 11.3016 10.8158 11.9491L11.8433 13.4574C12.3558 14.2108 12.2633 15.2491 11.6275 15.8874L10.9467 16.5716C10.2683 17.2524 9.29915 17.4999 8.40332 17.2199C6.28665 16.5599 4.34249 14.6008 2.56749 11.3424C0.789987 8.07909 0.162487 5.30909 0.685821 3.03576C0.905821 2.07909 1.58665 1.31659 2.47665 1.03242Z" fill="#D9664C"/>
</svg>
